<?xml version="1.0" encoding="UTF-8"?>
<svg viewBox="0 0 595.78815 784.63647" xmlns="http://www.w3.org/2000/svg">
 <defs>
  <filter id="o">
   <feGaussianBlur stdDeviation=".8585"/>
  </filter>
  <filter id="j">
   <feGaussianBlur stdDeviation=".6889"/>
  </filter>
  <filter id="n">
   <feGaussianBlur stdDeviation="3.0021"/>
  </filter>
  <filter id="l">
   <feGaussianBlur stdDeviation="1.2989"/>
  </filter>
  <filter id="m" x="-.05196" y="-.18557" width="1.1039" height="1.3711">
   <feGaussianBlur stdDeviation="5.4124"/>
  </filter>
  <filter id="i" x="-.07179" y="-.36529" width="1.1436" height="1.7306">
   <feGaussianBlur stdDeviation="2.5875"/>
  </filter>
  <filter id="k" x="-.2" y="-.2" width="1.4" height="1.4">
   <feGaussianBlur result="fbSourceGraphic" stdDeviation="3.8828"/>
   <feColorMatrix in="fbSourceGraphic" result="fbSourceGraphicAlpha" values="0 0 0 -1 0 0 0 0 -1 0 0 0 0 -1 0 0 0 0 1 0"/>
   <feTurbulence baseFrequency=".05" numOctaves="5" result="result91" type="fractalNoise"/>
   <feDisplacementMap in="fbSourceGraphic" in2="result91" result="result5" scale="25" xChannelSelector="R"/>
   <feComposite in="fbSourceGraphic" in2="result5" operator="atop"/>
  </filter>
  <filter id="a" x="-.04205" y="-.10469" width="1.0841" height="1.2094">
   <feGaussianBlur stdDeviation="2.2362"/>
  </filter>
  <filter id="h" x="-.32946" y="-.3428" width="1.6589" height="1.6856">
   <feGaussianBlur stdDeviation="41.8679"/>
  </filter>
  <linearGradient id="f" x1="-66.181" x2="364.42" y1="-19.263" y2="39.018" gradientUnits="userSpaceOnUse">
   <stop stop-color="#fff" stop-opacity=".4986" offset="0"/>
   <stop stop-color="#502816" stop-opacity="0" offset="1"/>
  </linearGradient>
  <linearGradient id="g" x1="590.91" x2="526.73" y1="391.83" y2="492.83" gradientUnits="userSpaceOnUse">
   <stop stop-color="#808080" offset="0"/>
   <stop stop-color="#808080" stop-opacity="0" offset="1"/>
  </linearGradient>
  <radialGradient id="e" cx="330" cy="670.39" r="125.5" gradientTransform="matrix(1 0 0 .28287 0 442.73)" gradientUnits="userSpaceOnUse">
   <stop stop-color="#e6e6e6" offset="0"/>
   <stop stop-color="#bcbcbc" offset="1"/>
  </radialGradient>
  <radialGradient id="d" cx="317.6" cy="698.26" r="125.5" gradientTransform="matrix(1.0364 .03662 -.02406 .42925 5.2527 328.88)" gradientUnits="userSpaceOnUse">
   <stop stop-color="#978f8f" offset="0"/>
   <stop stop-color="#d1cbcb" offset="1"/>
  </radialGradient>
  <radialGradient id="c" cx="130" cy="-18.99" r="107" gradientTransform="matrix(6.1801 1.3483e-7 0 .94272 -677 -40.665)" gradientUnits="userSpaceOnUse">
   <stop stop-color="#f7f7f7" offset="0"/>
   <stop stop-color="#cecece" stop-opacity="0" offset="1"/>
  </radialGradient>
  <radialGradient id="b" cx="323.37" cy="457.92" r="107" gradientTransform="matrix(2.9329 6.6487e-7 -5.9363e-7 2.6187 -822.01 -1112)" gradientUnits="userSpaceOnUse">
   <stop stop-color="#f9f9f9" offset="0"/>
   <stop stop-color="#ccc" stop-opacity="0" offset="1"/>
  </radialGradient>
 </defs>
 <g transform="translate(-28.369 -27.446)">
  <path transform="matrix(2.1588 0 0 2.449 -375.35 -817.36)" d="m450 617.36c0 19.33-55.964 35-125 35s-125-15.67-125-35 55.964-35 125-35 125 15.67 125 35z" fill="#666" filter="url(#m)"/>
  <path transform="matrix(2.0669 0 0 2.1931 -345.48 -652.96)" d="m450 617.36c0 19.33-55.964 35-125 35s-125-15.67-125-35 55.964-35 125-35 125 15.67 125 35z" fill="#808080"/>
  <path transform="matrix(2.2416 0 0 2.2416 -404.52 -695.93)" d="m450 617.36c0 19.33-55.964 35-125 35s-125-15.67-125-35 55.964-35 125-35 125 15.67 125 35z" fill="#fff"/>
  <path transform="matrix(2.2416 0 0 2.2416 -405.08 -700.35)" d="m450 617.36c0 19.33-55.964 35-125 35s-125-15.67-125-35 55.964-35 125-35 125 15.67 125 35z" fill="url(#e)"/>
  <path transform="matrix(1.1896 0 0 1.1331 -63.201 -2.583)" d="m450 617.36c0 19.33-55.964 35-125 35s-125-15.67-125-35 55.964-35 125-35 125 15.67 125 35z" fill="#bdbdbd" filter="url(#o)" opacity=".733" stroke="url(#d)" stroke-linecap="round" stroke-linejoin="round" stroke-width="3.8613"/>
  <path transform="matrix(2.2416 0 0 2.2416 26.369 192.02)" d="m178.5 225.78c0 4.6944-20.707 8.5-46.25 8.5s-46.25-3.8056-46.25-8.5 20.707-8.5 46.25-8.5 46.25 3.8056 46.25 8.5z" fill="#333" filter="url(#i)" opacity=".812"/>
  <path d="m520.14 384.87-1.2322 26.454c87.84-15.545 41.072 72.978-20 72l-1 45c90.651 8.9594 178.32-162.67 22.232-143.45z" fill="#e1e1e1"/>
  <path d="m537.22 406.56s41.833 0.38063 51.693 7.3189c27.193 19.135-35.523 96.704-82.672 75.478 31.459-3.4205 104.79-74.757 30.979-82.797z" fill="url(#g)" filter="url(#l)" opacity=".4905"/>
 </g>
 <g transform="translate(165 367.99)">
  <path d="m130.05-79.37c-65.086 0-123.98 6.1223-166.93 16.041-21.474 4.9595-38.975 10.751-51.487 17.582-6.2557 3.4158-11.232 7.036-14.991 11.278s-6.4446 9.5514-6.4446 15.481c0 0 4.4832 336.24 239.85 336.24s239.85-336.24 239.85-336.24c0-5.9296-2.6861-11.239-6.4446-15.481s-8.7349-7.8622-14.991-11.278c-12.511-6.8317-30.012-12.623-51.487-17.582-42.948-9.9191-101.84-16.041-166.93-16.041z" fill="#a9a9a9"/>
  <path d="m130.05-79.37c-65.086 0-123.98 6.1223-166.93 16.041-21.474 4.9595-38.975 10.751-51.487 17.582-6.2557 3.4158-11.232 7.036-14.991 11.278s-6.4446 9.5514-6.4446 15.481c0 0 4.4832 336.24 239.85 336.24s239.85-336.24 239.85-336.24c0-5.9296-2.6861-11.239-6.4446-15.481s-8.7349-7.8622-14.991-11.278c-12.511-6.8317-30.012-12.623-51.487-17.582-42.948-9.9191-101.84-16.041-166.93-16.041z" fill="url(#c)"/>
  <path d="m130.06-33.909c-59.032 0-112.43 6.2291-151.38 16.372-19.477 5.0714-35.354 11.032-46.702 18.018-5.6738 3.4929-10.215 7.1833-13.624 11.521s-5.8298 9.7889-5.8298 15.852 2.4209 11.428 5.8298 15.766 7.9502 8.0281 13.624 11.521c11.348 6.9858 27.225 13.033 46.702 18.104 38.953 10.143 92.352 16.285 151.38 16.285s112.43-6.1425 151.38-16.285c19.477-5.0714 35.354-11.119 46.702-18.104 5.6738-3.4929 10.215-7.1833 13.624-11.521s5.8298-9.7023 5.8298-15.766-2.4209-11.515-5.8298-15.852-7.9502-8.0281-13.624-11.521c-11.348-6.9858-27.225-12.946-46.702-18.018-38.953-10.143-92.352-16.372-151.38-16.372z" fill="#502816"/>
  <path d="m130.06-33.909c-59.032 0-112.43 6.2291-151.38 16.372-19.477 5.0714-35.354 11.032-46.702 18.018-5.6738 3.4929-10.215 7.1833-13.624 11.521s-5.8298 9.7889-5.8298 15.852 2.4209 11.428 5.8298 15.766 7.9502 8.0281 13.624 11.521c11.348 6.9858 27.225 13.033 46.702 18.104 38.953 10.143 92.352 16.285 151.38 16.285s112.43-6.1425 151.38-16.285c19.477-5.0714 35.354-11.119 46.702-18.104 5.6738-3.4929 10.215-7.1833 13.624-11.521s5.8298-9.7023 5.8298-15.766-2.4209-11.515-5.8298-15.852-7.9502-8.0281-13.624-11.521c-11.348-6.9858-27.225-12.946-46.702-18.018-38.953-10.143-92.352-16.372-151.38-16.372z" fill="url(#f)"/>
  <path transform="matrix(2.2416 0 0 2.2416 -165 -209.38)" d="m131.62 76.281c-26.335 0-50.154 2.7876-67.531 7.3125-8.6888 2.2624-15.781 4.9148-20.844 8.0312-2.5312 1.5582-4.5417 3.1899-6.0625 5.125s-2.5938 4.3888-2.5938 7.0938 1.073 5.0961 2.5938 7.0312c0.25332 0.32233 0.53115 0.63026 0.8125 0.9375 1.405-1.5302 5.7116-0.86075 7.8133-2.1546 5.0623-3.1164 12.155-5.7688 20.844-8.0312 17.378-4.5248 38.949-5.56 65.283-5.56s48.424 1.4771 65.802 6.002c8.6888 2.2624 15.781 4.9148 20.844 8.0312 2.1017 1.2938 5.2592 0.18246 6.6642 1.7126 0.28135-0.30724 0.55918-0.61517 0.8125-0.9375 1.5208-1.9351 2.625-4.3263 2.625-7.0312s-1.1042-5.1586-2.625-7.0938-3.5313-3.5668-6.0625-5.125c-5.0623-3.1164-12.155-5.7688-20.844-8.0312-17.378-4.5248-41.196-7.3125-67.531-7.3125z" fill="#d8d8d8" filter="url(#j)" opacity=".2016"/>
  <path d="m-109.79-19.004s4.4832 336.27 239.85 336.27 239.85-336.27 239.85-336.27c-59.384 55.195-185.1 53.864-239.85 54.247-47.432-9.0485-232.79-4.1091-239.85-54.247z" fill="#b5b5b5"/>
  <path d="m-109.79-19.004s4.4832 336.27 239.85 336.27 239.85-336.27 239.85-336.27c-59.384 55.195-185.1 53.864-239.85 54.247-47.432-9.0485-232.79-4.1091-239.85-54.247z" fill="url(#b)"/>
  <path d="m130.06-79.37c-65.086 0-123.96 6.0917-166.91 16.011-21.474 4.9595-38.98 10.789-51.491 17.62-6.2557 3.4158-11.263 7.0248-15.021 11.267s-6.4277 9.5729-6.4277 15.502 2.6692 11.176 6.4277 15.418 8.7655 7.851 15.021 11.267c12.511 6.8317 30.017 12.745 51.491 17.705 42.948 9.9191 101.82 15.926 166.91 15.926s123.96-6.007 166.91-15.926c21.474-4.9595 38.98-10.873 51.491-17.705 6.2557-3.4158 11.263-7.0248 15.021-11.267s6.4277-9.4882 6.4277-15.418-2.6692-11.26-6.4277-15.502-8.7655-7.851-15.021-11.267c-12.511-6.8317-30.017-12.661-51.491-17.62-42.948-9.9191-101.82-16.011-166.91-16.011zm0 12.283c64.563 0 123.01 6.138 165.02 15.841 21.007 4.8517 37.939 10.632 49.186 16.773 5.6233 3.0705 9.8008 6.2476 12.296 9.0643s3.144 4.882 3.144 6.4382-0.64832 3.5368-3.144 6.3535-6.6731 5.9938-12.296 9.0643c-11.247 6.141-28.178 12.006-49.186 16.858-42.014 9.7034-100.46 15.757-165.02 15.757s-123.01-6.0532-165.02-15.757c-21.007-4.8517-37.939-10.717-49.186-16.858-5.6233-3.0705-9.8008-6.2476-12.296-9.0643s-3.144-4.7973-3.144-6.3535 0.64831-3.6215 3.144-6.4382 6.6731-5.9938 12.296-9.0643c11.247-6.141 28.178-11.921 49.186-16.773 42.014-9.7034 100.46-15.841 165.02-15.841z" fill="#ececec"/>
  <path d="m-106.09 23.117c-0.0585 0.69005-0.14301 1.4387-0.14301 2.1447 0 6.5858 2.5886 12.375 6.2912 17.086s8.6359 8.717 14.799 12.511c12.325 7.5878 29.604 14.152 50.759 19.66 42.31 11.017 100.31 17.73 164.43 17.73s122.12-6.7129 164.43-17.73c21.155-5.5084 38.433-12.072 50.759-19.66 6.1627-3.7939 11.096-7.7995 14.799-12.511s6.2912-10.501 6.2912-17.086c0-0.70601-0.0845-1.4547-0.14302-2.1447-0.55392 5.5917-2.9085 10.533-6.1482 14.656-3.7026 4.7114-8.6359 8.717-14.799 12.511-12.325 7.5877-29.604 14.152-50.759 19.66-42.31 11.017-100.31 17.73-164.43 17.73s-122.12-6.7129-164.43-17.73c-21.155-5.5084-38.433-12.072-50.759-19.66-6.1627-3.7939-11.096-7.7995-14.799-12.511-3.2398-4.1226-5.5943-9.0639-6.1483-14.656z" fill="#000080"/>
  <path d="m-107.77 4.9379c-0.0589 0.69496-0.14413 1.449-0.14413 2.16 0 6.6327 2.607 12.463 6.336 17.208 3.729 4.745 8.6973 8.779 14.904 12.6 12.413 7.6417 29.814 14.252 51.12 19.8 42.611 11.095 101.02 17.856 165.6 17.856s122.99-6.7607 165.6-17.856c21.306-5.5476 38.707-12.158 51.12-19.8 6.2066-3.8209 11.175-7.855 14.904-12.6 3.729-4.745 6.336-10.575 6.336-17.208 0-0.71103-0.0852-1.465-0.14414-2.16-0.55786 5.6315-2.9291 10.608-6.192 14.76-3.729 4.745-8.6974 8.779-14.904 12.6-12.413 7.6417-29.814 14.252-51.12 19.8-42.611 11.095-101.02 17.856-165.6 17.856s-122.99-6.7607-165.6-17.856c-21.305-5.5476-38.707-12.158-51.12-19.8-6.2066-3.8209-11.175-7.855-14.904-12.6-3.2628-4.1519-5.6341-9.1284-6.192-14.76z" fill="#000080"/>
  <path d="m-87.424 120.39c-0.05357 0.63132 0.33461 1.4076 0.52534 2.0247 2.1919 7.0922 4.1218 10.541 7.5093 14.852s6.9286 8.5054 12.567 11.976c11.276 6.9419 27.084 12.947 46.438 17.987 38.709 10.079 91.773 16.221 150.43 16.221s111.72-6.1416 150.43-16.221c19.354-5.0396 35.162-11.045 46.438-17.987 5.6382-3.471 9.6212-7.5776 13.009-11.888s5.2236-8.9148 7.0361-15.065c0.18259-0.61958 0.5477-1.3934 0.49409-2.0247-3.0996 7.8817-4.5313 9.3931-7.7071 13.434s-7.1937 7.8867-12.832 11.358c-11.276 6.9419-27.084 12.947-46.438 17.987-38.709 10.079-91.773 16.221-150.43 16.221s-111.73-6.1416-150.43-16.221c-19.354-5.0396-35.162-11.045-46.438-17.987-5.6382-3.471-9.8145-7.7128-12.744-11.534s-4.7202-5.8368-7.8577-13.132z" fill="#000080"/>
  <path d="m321.67 21.154c-42.175-17.738-75.542-24.068-114-27.87l-2.5607-21.895c43.766 3.0836 76.685 9.9042 117.63 27.077z" fill="#fff" filter="url(#a)" opacity=".1335"/>
  <path d="m130.06-75.37c-65.086 0-123.96 6.0917-166.91 16.011-21.474 4.9595-38.98 10.789-51.491 17.62-6.2557 3.4158-11.263 7.0248-15.021 11.267s-2.185 7.4516-2.185 13.381-5.8161 8.7009-2.0576 12.943 13.008 12.447 19.264 15.863c12.511 6.8317 30.017 12.745 51.491 17.705 42.948 9.9191 101.82 15.926 166.91 15.926s123.96-6.007 166.91-15.926c21.474-4.9595 38.98-10.873 51.491-17.705 6.2557-3.4158 15.152-10.56 18.91-14.802s2.5386-5.9527 2.5386-11.882-2.6692-11.26-6.4277-15.502-8.7655-7.851-15.021-11.267c-12.511-6.8317-30.017-12.661-51.491-17.62-42.948-9.9191-101.82-16.011-166.91-16.011zm0 12.283c64.563 0 123.01 6.138 165.02 15.841 21.007 4.8517 37.939 10.632 49.186 16.773 5.6233 3.0705 6.7956 6.2476 9.2912 9.0643s3.144 4.882 3.144 6.4382-0.64832 3.5368-3.144 6.3535-3.6679 5.9938-9.2912 9.0643c-11.247 6.141-28.178 12.006-49.186 16.858-42.014 9.7034-100.46 15.757-165.02 15.757s-123.01-6.0532-165.02-15.757c-21.007-4.8517-37.939-10.717-49.186-16.858-5.6233-3.0705-5.5581-6.9547-8.0538-9.7714s-3.144-4.7973-3.144-6.3535 0.64831-3.6215 3.144-6.4382 2.4305-5.2867 8.0538-8.3572c11.247-6.141 28.178-11.921 49.186-16.773 42.014-9.7034 100.46-15.841 165.02-15.841z" fill="#ececec" filter="url(#n)"/>
  <path transform="translate(-165 -79.37)" d="m84.5 110.52c21.683 10.492 31.984 16.172 53.5 13.5-4.8358 57.382 7.8164 155.25 43 216-46.509-59.902-81.876-119.9-96.5-229.5z" fill="#e6e6e6" opacity=".4005"/>
  <path transform="translate(-165 -79.37)" d="m197.28 99.333-22.281-72.347-41.071-74.054 31.497-84.456 78.828-56.61 84.054 1.3137 110.61 44.485-3.2254 117.15 2.3726 70.882-10.047 18.77-22.849 32.74-114.55 7.7782z" fill="#c8b7b7" filter="url(#h)" opacity=".2207"/>
  <path transform="translate(-165 -79.37)" d="m302.64 90.141c159.63-27.569-244.78-238.65 53.74-200.82-95.496-29.337-167.39-6.4016-152.15 30.872 22.312 54.545 167.28 106.96 98.407 169.95z" fill="#c8b7b7" filter="url(#k)" opacity=".1253"/>
  <path transform="translate(-165 -333.57)" d="m489.67 327.72c-42.175-17.738-81.042-23.068-119.5-26.87l1.9393-20.895c43.766 3.0836 81.185 8.4042 122.13 25.577z" fill="#fff" filter="url(#a)" opacity=".3379"/>
 </g>
</svg>
