<?xml version="1.0" encoding="UTF-8" standalone="no"?>
<svg
   xmlns:dc="http://purl.org/dc/elements/1.1/"
   xmlns:cc="http://creativecommons.org/ns#"
   xmlns:rdf="http://www.w3.org/1999/02/22-rdf-syntax-ns#"
   xmlns:svg="http://www.w3.org/2000/svg"
   xmlns="http://www.w3.org/2000/svg"
   xmlns:sodipodi="http://sodipodi.sourceforge.net/DTD/sodipodi-0.dtd"
   xmlns:inkscape="http://www.inkscape.org/namespaces/inkscape"
   viewBox="0 0 756.2702 553.7702"
   version="1.1"
   id="svg28"
   sodipodi:docname="sticky-note-145433.svg"
   inkscape:version="1.0.2 (1.0.2+r75+1)">
  <metadata
     id="metadata32">
    <rdf:RDF>
      <cc:Work
         rdf:about="">
        <dc:format>image/svg+xml</dc:format>
        <dc:type
           rdf:resource="http://purl.org/dc/dcmitype/StillImage" />
      </cc:Work>
    </rdf:RDF>
  </metadata>
  <sodipodi:namedview
     pagecolor="#ffffff"
     bordercolor="#666666"
     borderopacity="1"
     objecttolerance="10"
     gridtolerance="10"
     guidetolerance="10"
     inkscape:pageopacity="0"
     inkscape:pageshadow="2"
     inkscape:window-width="1920"
     inkscape:window-height="1050"
     id="namedview30"
     showgrid="false"
     inkscape:zoom="1.4157497"
     inkscape:cx="378.1351"
     inkscape:cy="192.12436"
     inkscape:window-x="0"
     inkscape:window-y="0"
     inkscape:window-maximized="1"
     inkscape:current-layer="svg28" />
  <defs
     id="defs10">
    <filter
       id="b"
       x="-.04263"
       y="-.10123"
       width="1.0853"
       height="1.2025">
      <feGaussianBlur
         stdDeviation="9.29437"
         id="feGaussianBlur2" />
    </filter>
    <linearGradient
       id="a"
       x1="702.6"
       x2="682.39"
       y1="517.42"
       y2="433.49"
       gradientUnits="userSpaceOnUse">
      <stop
         stop-opacity=".51111"
         offset="0"
         id="stop5" />
      <stop
         stop-opacity="0"
         offset="1"
         id="stop7" />
    </linearGradient>
  </defs>
  <g
     transform="translate(-27.418,-13.391)"
     id="g18">
    <path
       d="m 556.48,374.55 131.48,-105.71 17.143,220.05 -522.91,-14.286 374.29,-100.05 z"
       filter="url(#b)"
       opacity="0.76932"
       stroke="#000000"
       stroke-width="0.297"
       id="path12" />
    <path
       d="m 90.769,73.125 h 611.48 l -8.5714,402.91 -602.91,22.857 V 73.132 Z"
       fill="#ffd42a"
       opacity="0.98"
       stroke="#000000"
       stroke-opacity="0.68647"
       stroke-width="0.697"
       id="path14" />
    <path
       d="m 702.25,73.125 -8.5714,402.91 -602.91,22.857 611.48,-425.76 z"
       fill="url(#a)"
       id="path16"
       style="fill:url(#a)" />
  </g>
  <path
     d="M 703.28598,259.46799 503.1667,50.88309 l -0.13024,-0.16616 -0.0917,-0.18283 -0.0533,-0.19368 -0.015,-0.19874 0.0232,-0.19789 0.0612,-0.19137 0.0992,-0.17889 0.13701,-0.16061 12.42437,0.18383 0.33082,-12.42134 12.42436,0.1838 0.33083,-12.42132 12.42436,0.18381 0.33082,-12.42125 12.42438,0.18373 0.33082,-12.42124 0.16615,-0.1303 0.18283,-0.09166 0.1937,-0.05325 0.19873,-0.01504 0.19793,0.02323 0.19132,0.0612 0.17888,0.0992 0.16062,0.13704 200.11928,208.58489 0.13025,0.16616 0.0917,0.18284 0.0533,0.19367 0.015,0.19874 -0.0232,0.19792 -0.0612,0.19132 -0.0992,0.17889 -0.13702,0.16062 -12.42437,-0.18382 -0.33081,12.42133 -12.42436,-0.18382 -0.33083,12.42133 -12.42437,-0.18382 -0.33082,12.42133 -12.42437,-0.18382 -0.33082,12.42133 -0.16616,0.13024 -0.18282,0.0917 -0.1937,0.0533 -0.19873,0.015 -0.19793,-0.0232 -0.19131,-0.0613 -0.17889,-0.0992 z"
     fill="#f2f2f2"
     fill-opacity="0.73927"
     opacity="0.588"
     stroke="#000000"
     stroke-width="0.346"
     id="path22" />
  <path
     d="M 240.036,553.41737 0.63134,391.42723 l -0.16219,-0.13516 -0.12798,-0.15955 -0.09272,-0.1782 -0.05631,-0.19118 -0.01881,-0.19835 0.01976,-0.19996 0.05948,-0.19571 0.10029,-0.18577 12.18675,-2.42524 -2.28088,-12.21461 12.18673,-2.42527 -2.28087,-12.21459 12.18674,-2.42526 -2.28087,-12.21452 12.18675,-2.42534 -2.28087,-12.21452 0.13514,-0.16223 0.15955,-0.12797 0.17823,-0.0927 0.19116,-0.0564 0.1984,-0.0188 0.1999,0.0197 0.1957,0.0595 0.18578,0.10032 239.40466,161.99012 0.16219,0.13516 0.12799,0.15955 0.0927,0.1782 0.0563,0.19117 0.0188,0.19839 -0.0198,0.19991 -0.0595,0.19571 -0.1003,0.18577 -12.18675,2.42526 2.28089,12.21459 -12.18675,2.42526 2.28088,12.21459 -12.18675,2.42526 2.28087,12.2146 -12.18674,2.42525 2.28088,12.2146 -0.13517,0.16219 -0.15953,0.12798 -0.17822,0.0927 -0.19117,0.0563 -0.1984,0.0188 -0.1999,-0.0198 -0.1957,-0.0595 -0.18579,-0.10029 z"
     fill="#f2f2f2"
     fill-opacity="0.73927"
     opacity="0.588"
     stroke="#000000"
     stroke-width="0.346"
     id="path24" />
</svg>
