<?xml version="1.0" encoding="UTF-8" standalone="no"?>
<svg
   xmlns:dc="http://purl.org/dc/elements/1.1/"
   xmlns:cc="http://creativecommons.org/ns#"
   xmlns:rdf="http://www.w3.org/1999/02/22-rdf-syntax-ns#"
   xmlns:svg="http://www.w3.org/2000/svg"
   xmlns="http://www.w3.org/2000/svg"
   xmlns:sodipodi="http://sodipodi.sourceforge.net/DTD/sodipodi-0.dtd"
   xmlns:inkscape="http://www.inkscape.org/namespaces/inkscape"
   enable-background="new 0 0 286.2 62.8"
   version="1.1"
   viewBox="0 0 286.2 62.8"
   xml:space="preserve"
   id="svg364"
   sodipodi:docname="table.svg"
   inkscape:version="1.0.2 (1.0.2+r75+1)"><metadata
   id="metadata370"><rdf:RDF><cc:Work
       rdf:about=""><dc:format>image/svg+xml</dc:format><dc:type
         rdf:resource="http://purl.org/dc/dcmitype/StillImage" /></cc:Work></rdf:RDF></metadata><defs
   id="defs368" /><sodipodi:namedview
   pagecolor="#ffffff"
   bordercolor="#666666"
   borderopacity="1"
   objecttolerance="10"
   gridtolerance="10"
   guidetolerance="10"
   inkscape:pageopacity="0"
   inkscape:pageshadow="2"
   inkscape:window-width="1920"
   inkscape:window-height="1050"
   id="namedview366"
   showgrid="false"
   inkscape:zoom="4.140461"
   inkscape:cx="143.10001"
   inkscape:cy="31.4"
   inkscape:window-x="0"
   inkscape:window-y="0"
   inkscape:window-maximized="1"
   inkscape:current-layer="svg364" />
	<g
   clip-rule="evenodd"
   fill-rule="evenodd"
   id="g362"
   transform="translate(0.18965963,-28.114704)">
			<radialGradient
   id="g"
   cx="143.10001"
   cy="71.300003"
   r="130.69"
   gradientTransform="matrix(1,0,0,-0.1396,0,81.256)"
   gradientUnits="userSpaceOnUse">
			<stop
   stop-opacity=".3686"
   offset="0"
   id="stop2" />
			<stop
   stop-opacity="0"
   offset="1"
   id="stop4" />
		</radialGradient>
		<path
   d="m 286.2,71.3 c 0,5.533 -13.967,10.25 -41.9,14.15 C 216.333,89.349 182.6,91.3 143.1,91.3 103.567,91.3 69.834,89.35 41.9,85.45 13.967,81.55 0,76.833 0,71.3 0,65.767 13.967,61.05 41.9,57.15 c 27.934,-3.9 61.667,-5.851 101.2,-5.851 38.533,0 71.817,1.9 99.851,5.7 28.83,3.901 43.25,8.668 43.25,14.301 z"
   fill="url(#g)"
   id="path7"
   style="fill:url(#g)" />
			<radialGradient
   id="h"
   cx="64.699997"
   cy="79.25"
   r="9.9375"
   gradientTransform="matrix(1,0,0,-0.3509,0,107.06)"
   gradientUnits="userSpaceOnUse">
			<stop
   stop-opacity=".4471"
   offset="0"
   id="stop9" />
			<stop
   stop-opacity="0"
   offset="1"
   id="stop11" />
		</radialGradient>
		<path
   d="m 75.6,79.25 c 0,1.066 -1.067,1.967 -3.2,2.7 -2.133,0.733 -4.7,1.1 -7.7,1.1 -3,0 -5.55,-0.366 -7.65,-1.1 -2.133,-0.733 -3.2,-1.634 -3.2,-2.7 0,-1.066 1.066,-1.967 3.2,-2.7 2.1,-0.767 4.65,-1.149 7.65,-1.149 3,0 5.566,0.383 7.7,1.149 2.133,0.733 3.2,1.634 3.2,2.7 z"
   fill="url(#h)"
   id="path14"
   style="fill:url(#h)" />
			<radialGradient
   id="i"
   cx="237.78"
   cy="79.25"
   r="11.22"
   gradientTransform="matrix(1,0,0,-0.3304,0,105.43)"
   gradientUnits="userSpaceOnUse">
			<stop
   stop-opacity=".4471"
   offset="0"
   id="stop16" />
			<stop
   stop-opacity="0"
   offset="1"
   id="stop18" />
		</radialGradient>
		<path
   d="m 250.05,79.25 c 0,1.134 -1.2,2.083 -3.6,2.85 -2.4,0.801 -5.283,1.2 -8.65,1.2 -3.399,0 -6.3,-0.399 -8.7,-1.2 -2.399,-0.767 -3.6,-1.716 -3.6,-2.85 0,-1.134 1.2,-2.083 3.6,-2.85 2.4,-0.801 5.301,-1.2 8.7,-1.2 3.367,0 6.25,0.399 8.65,1.2 2.4,0.767 3.6,1.716 3.6,2.85 z"
   fill="url(#i)"
   id="path21"
   style="fill:url(#i)" />
			<radialGradient
   id="j"
   cx="67.699997"
   cy="79.150002"
   r="2.8375001"
   gradientTransform="matrix(1,0,0,-1,0,158.3)"
   gradientUnits="userSpaceOnUse">
			<stop
   stop-opacity=".3255"
   offset=".1647"
   id="stop23" />
			<stop
   stop-opacity=".3255"
   offset=".2745"
   id="stop25" />
		</radialGradient>
		<path
   d="M 64.65,81.5 63.95,77 c 0.8,0 2.05,-0.033 3.75,-0.1 1.533,-0.067 2.767,-0.017 3.7,0.149 0.1,0.4 -0.217,0.867 -0.95,1.4 -0.367,0.267 -0.884,0.6 -1.55,1 -1.467,1.367 -2.883,2.051 -4.25,2.051 z"
   fill="url(#j)"
   id="path28"
   style="fill:url(#j)" />
			<radialGradient
   id="k"
   cx="240.5"
   cy="79.150002"
   r="4.0767002"
   gradientTransform="matrix(1,0,0,-1,0,158.3)"
   gradientUnits="userSpaceOnUse">
			<stop
   stop-opacity=".3255"
   offset=".1647"
   id="stop30" />
			<stop
   stop-opacity=".3255"
   offset=".2745"
   id="stop32" />
		</radialGradient>
		<path
   d="m 242.2,77.05 c 0.7,0.167 1.217,0.316 1.55,0.45 1,0.4 1.667,0.983 2,1.75 0.333,0.667 0.383,1.233 0.15,1.7 -0.233,0.5 -0.717,0.75 -1.45,0.75 -0.8,0.033 -2.384,0.116 -4.75,0.25 -1.934,0.133 -3.517,0.2 -4.75,0.2 l 3.15,-6.05 c 0.334,-0.033 0.767,0.034 1.301,0.2 0.3,0.101 0.716,0.233 1.25,0.4 0.23,0.067 0.75,0.184 1.55,0.35 z"
   fill="url(#k)"
   id="path35"
   style="fill:url(#k)" />
		<polygon
   points="215.5,62.5 212,58.15 212,39.25 88.15,39.25 88.15,58.75 84.35,62.5 81.9,60.7 81.45,38.05 218.35,38.05 217.2,60.1 "
   fill="#8a6b3f"
   id="polygon37" />
		<rect
   x="76.699997"
   y="37.599998"
   width="7.6500001"
   height="24.9"
   fill="#6e6041"
   id="rect39" />
		<rect
   x="215.5"
   y="37.599998"
   width="7.5999999"
   height="24.9"
   fill="#6e6041"
   id="rect41" />
		<polygon
   points="229.85,77.35 229.85,58.45 69.35,58.45 69.35,77.95 64.4,81.7 61.25,79.9 60.65,57.25 238.1,57.25 236.6,79.3 234.35,81.7 "
   fill="#a39060"
   id="polygon43" />
			<polygon
   points="69.35,63.05 67.8,62.7 68,62.35 67.85,61.8 69.35,61.15 "
   fill="#8f7e54"
   id="polygon45" />
			<polygon
   points="72.25,57.25 72.85,57.25 72.75,58.45 72.05,58.45 "
   fill="#8f7e54"
   id="polygon47" />
			<path
   d="m 69.35,74 v 3.95 L 68.15,78.9 68,73.3 c 0.033,-0.3 0.066,-0.533 0.1,-0.7 0.033,-0.233 0.15,-0.433 0.35,-0.6 0.366,0.134 0.667,0.8 0.9,2 z"
   fill="#8f7e54"
   id="path49" />
			<path
   d="m 66.9,72.9 -0.1,6.05 c -0.133,-0.767 -0.167,-1.816 -0.1,-3.15 0.133,-1.866 0.2,-2.833 0.2,-2.9 z"
   fill="#8f7e54"
   id="path51" />
			<path
   d="M 67.85,61.8 68,62.35 67.8,62.7 c -0.466,0.666 -0.767,1.166 -0.9,1.5 -0.167,0.434 -0.25,1.017 -0.25,1.75 v 2 c 0,1.1 -0.066,2.1 -0.2,3 -0.034,0.2 -0.167,0.666 -0.4,1.399 -0.167,0.567 -0.267,1.067 -0.3,1.5 0,2.9 0.15,5.067 0.45,6.5 L 65.5,80.9 c -0.2,-1.167 -0.3,-2.65 -0.3,-4.45 0.037,-1.122 0.062,-2.081 0.075,-2.875 -0.029,0.704 -0.087,1.528 -0.175,2.475 0,0.267 0.017,0.783 0.05,1.55 -0.033,0.7 -0.2,1.167 -0.5,1.4 -0.233,-0.3 -0.333,-0.8 -0.3,-1.5 0.033,-0.767 0.033,-1.3 0,-1.6 -0.1,-0.934 -0.15,-1.867 -0.15,-2.801 0,-1.466 0.066,-2.55 0.2,-3.25 0.6,-3.1 1.133,-5.283 1.6,-6.55 0.167,-0.399 0.3,-0.649 0.4,-0.75 0.133,-0.133 0.417,-0.3 0.85,-0.5 z"
   fill="#8f7e54"
   id="path53" />
			<path
   d="m 229.85,74.65 h 0.051 c 0.166,0.133 0.482,0.399 0.949,0.8 0.467,0.399 0.867,0.666 1.2,0.8 0.066,1.167 0.033,2.2 -0.1,3.1 L 231.3,78.8 c 0.066,-1.267 0,-2.233 -0.2,-2.899 -0.133,0.166 -0.217,0.399 -0.25,0.699 -0.033,-0.333 -0.149,-0.6 -0.35,-0.8 -0.066,0.467 -0.083,1.184 -0.05,2.15 l -0.601,-0.601 V 74.65 Z"
   fill="#8f7e54"
   id="path55" />
			<path
   d="m 236.4,57.25 h 1.699 l -1.5,22.05 -2.25,2.4 -0.65,-0.6 0.25,-2.5 0.149,0.2 c 0.101,0.066 0.317,0.084 0.65,0.05 0.167,0 0.383,-0.017 0.65,-0.05 0.066,-0.8 0.116,-2.1 0.149,-3.899 0,-1.667 0.05,-2.967 0.15,-3.9 0.5,-5.734 0.73,-10.317 0.7,-13.751 z"
   fill="#8f7e54"
   id="path57" />
			<path
   d="m 234.05,67.3 c 0.033,0.4 0.033,1 0,1.8 0,1.101 -0.066,2.7 -0.2,4.801 -0.533,1.8 -0.833,3.949 -0.899,6.449 l -0.55,-0.55 -0.351,-3.55 0.65,0.1 c 0.133,-0.733 0.166,-1.666 0.1,-2.8 -0.066,-1.566 -0.1,-2.517 -0.1,-2.85 l -0.05,-0.05 0.05,-1.15 c 0.166,-1.5 0.166,-3.267 0,-5.3 -0.667,0.7 -1.134,1.6 -1.4,2.7 0.3,-3.101 0.017,-4.867 -0.85,-5.301 1.267,0.067 2.083,0.617 2.45,1.65 0.366,1.233 0.633,2.017 0.8,2.35 0.2,0.501 0.32,1.068 0.35,1.701 z"
   fill="#8f7e54"
   id="path59" />
			<path
   d="m 233.7,65.6 c -0.167,-0.333 -0.434,-1.116 -0.8,-2.35 -0.367,-1.033 -1.184,-1.583 -2.45,-1.65 h -0.601 v -3.15 h -2.399 l -0.101,-1.2 h 9.051 c 0.033,3.434 -0.2,8.017 -0.7,13.75 -0.101,0.934 -0.15,2.233 -0.15,3.9 -0.033,1.8 -0.083,3.1 -0.149,3.899 -0.268,0.033 -0.483,0.05 -0.65,0.05 -0.333,0.034 -0.55,0.017 -0.65,-0.05 l -0.149,-0.2 c 0.2,-2.233 0.183,-3.816 -0.05,-4.75 l -0.05,0.051 c 0.134,-2.101 0.2,-3.7 0.2,-4.801 0.033,-0.8 0.033,-1.399 0,-1.8 -0.03,-0.632 -0.15,-1.199 -0.35,-1.699 z"
   fill="#6e6041"
   id="path61" />
			<path
   d="m 229.9,74.65 h -0.051 V 69.7 l 2.801,0.95 0.05,0.05 c 0,0.333 0.033,1.283 0.1,2.85 0.066,1.134 0.033,2.066 -0.1,2.8 l -0.65,-0.1 c -0.333,-0.134 -0.733,-0.4 -1.2,-0.8 -0.47,-0.4 -0.78,-0.667 -0.95,-0.8 z"
   fill="#6e6041"
   id="path63" />
			<path
   d="m 230.45,77.95 c -0.033,-0.967 -0.017,-1.684 0.05,-2.15 0.2,0.2 0.316,0.467 0.35,0.8 0.134,0.434 0.2,1.067 0.2,1.9 z"
   fill="#6e6041"
   id="path65" />
			<path
   d="m 233.9,73.85 c 0.232,0.934 0.25,2.517 0.05,4.75 l -0.25,2.5 -0.75,-0.75 c 0.066,-2.5 0.366,-4.649 0.899,-6.449 l 0.05,-0.051 z"
   fill="#6e6041"
   id="path67" />
			<polygon
   points="67.75,79.2 68,73.3 68.15,78.9 "
   fill="#6e6041"
   id="polygon69" />
			<path
   d="m 66.65,80 0.25,-6.475 c 0.027,1.326 0.16,3.334 0.4,6.024 z"
   fill="#6e6041"
   id="path71" />
			<path
   d="m 72.25,57.25 -0.2,1.2 h -2.7 v 2.7 l -2.1,0.899 c -0.434,0.2 -0.717,0.367 -0.85,0.5 -0.1,0.101 -0.233,0.351 -0.4,0.751 -0.467,1.267 -1,3.45 -1.6,6.55 -0.133,0.7 -0.2,1.784 -0.2,3.25 0,0.934 0.05,1.867 0.15,2.801 0.033,0.3 0.033,0.833 0,1.6 -0.034,0.7 0.066,1.2 0.3,1.5 0.3,-0.233 0.467,-0.7 0.5,-1.4 -0.033,-0.767 -0.05,-1.283 -0.05,-1.55 0.087,-0.946 0.146,-1.771 0.175,-2.475 -0.013,0.794 -0.038,1.753 -0.075,2.875 0,1.8 0.1,3.283 0.3,4.45 l -1.1,0.8 -3.15,-1.8 -0.6,-22.65 h 11.6 z"
   fill="#6e6041"
   id="path73" />
		<polygon
   points="65.75,69.35 88.1,52.3 210.8,52.3 233.15,69.35 229.1,71.2 69.8,71.2 "
   fill="#ccb985"
   id="polygon75" />
		<g
   fill="#baa979"
   id="g95">
			<path
   d="m 214.75,55.35 1.2,0.9 c -6.134,0.4 -10.95,0.7 -14.45,0.9 -6.367,0.366 -11.617,0.55 -15.75,0.55 -4.267,0 -11.9,-0.066 -22.9,-0.2 -11.033,-0.167 -18.883,-0.25 -23.55,-0.25 -28.433,0 -46.833,0.083 -55.2,0.25 l -2.85,0.05 1.15,-0.85 c 15.533,-0.4 30.883,-0.517 46.05,-0.351 9.5,0.134 21.85,0.301 37.05,0.5 11.4,0.101 19.684,-0.033 24.85,-0.399 5.6,-0.433 13.73,-0.8 24.4,-1.1 z"
   id="path77" />
			<path
   d="m 97.5,70.55 c 1.566,0.033 8.167,0.217 19.8,0.55 L 84.1,71 c -3.367,-0.033 -8.233,0 -14.6,0.1 l -1.85,-0.9 c 10.867,0.033 20.817,0.15 29.85,0.35 z"
   id="path79" />
			<path
   d="m 211.4,52.75 1.25,0.95 c -11.301,0.166 -17.9,0.3 -19.801,0.399 -7.699,0.367 -18.433,0.551 -32.199,0.551 -3.268,0 -11.867,-0.017 -25.8,-0.051 -7.8,-0.033 -14.4,-0.017 -19.8,0.051 -13.833,0.399 -24.233,0.699 -31.2,0.899 L 85.1,54.65 c 6.933,-0.233 13.117,-0.384 18.55,-0.45 3.7,-0.033 10.85,-0.066 21.45,-0.101 7.533,-0.033 19.367,-0.017 35.5,0.051 13.801,0 23.851,-0.2 30.15,-0.601 5.2,-0.365 12.08,-0.632 20.65,-0.799 z"
   id="path81" />
			<path
   d="m 232.6,68.9 0.551,0.449 -1.5,0.7 -12.45,0.051 c -16.467,-0.033 -29.384,-0.1 -38.75,-0.199 -16.967,-0.134 -28.733,-0.367 -35.3,-0.7 -16.101,-0.834 -28.917,-1.25 -38.45,-1.25 -18.2,-0.134 -31.15,-0.2 -38.85,-0.2 l 0.65,-0.45 c 1.267,0 4.917,-0.083 10.95,-0.25 3.033,-0.1 7.65,-0.066 13.85,0.101 6.133,0.166 11.95,0.267 17.45,0.3 7.033,0.033 12.933,0.083 17.7,0.149 3.9,0.067 11.767,0.367 23.6,0.9 9.634,0.4 18.351,0.6 26.15,0.6 13.666,0 24.399,-0.05 32.2,-0.149 l 22.2,-0.052 z"
   id="path83" />
			<path
   d="m 213,64.55 c 3.2,-0.133 7.566,-0.333 13.1,-0.6 l 0.851,0.7 c -2.733,0.066 -6.15,0.199 -10.25,0.399 -7.167,0.367 -11.934,0.584 -14.3,0.65 -7.367,0.166 -18.5,0.2 -33.4,0.1 -19.733,-0.1 -30.3,-0.166 -31.7,-0.2 -5,-0.033 -13.667,-0.183 -26,-0.449 -10.1,-0.2 -23.183,-0.4 -39.25,-0.601 l 1.25,-0.95 c 13.934,0.101 30.583,0.367 49.95,0.801 19.133,0.399 30.066,0.616 32.8,0.649 4.9,0.033 11.533,0.117 19.9,0.25 7.467,0.101 14.633,0.05 21.5,-0.149 4.57,-0.133 9.75,-0.334 15.55,-0.6 z"
   id="path85" />
			<path
   d="m 219.05,58.6 1.15,0.851 c -11.167,1.233 -18.75,1.85 -22.75,1.85 -5.967,0 -17.533,-0.116 -34.7,-0.35 -7.134,-0.066 -14.767,-0.217 -22.9,-0.45 -9.034,-0.267 -14.367,-0.417 -16,-0.45 -6.434,-0.2 -12.85,-0.3 -19.25,-0.3 L 78.3,59.8 79,59.25 c 2.267,0.033 5.917,0 10.95,-0.1 3.9,-0.067 7.183,-0.15 9.85,-0.25 2,-0.067 5.684,-0.051 11.05,0.05 1.833,0.033 4.4,0.149 7.7,0.35 2.733,0.167 11.883,0.316 27.45,0.45 9.9,0.066 21.45,0.366 34.65,0.9 5.966,0.233 13.1,0.033 21.399,-0.601 2.37,-0.165 8.03,-0.649 17,-1.449 z"
   id="path87" />
			<path
   d="m 212.65,62.85 c 5,0.034 8.933,-0.017 11.8,-0.149 l 0.95,0.75 h -1.6 c -16.434,0.033 -30.066,0.066 -40.899,0.1 -20.367,0.033 -32.95,0 -37.75,-0.1 -7.8,-0.134 -14.351,-0.2 -19.65,-0.2 h -15.9 c -5.934,0 -17.5,-0.283 -34.7,-0.85 l 1.65,-1.25 2.1,0.05 c 10.033,0.267 19.45,0.6 28.25,1 3.833,0.166 8.233,0.2 13.2,0.1 3.966,-0.066 5.95,-0.149 5.95,-0.25 0,-0.066 3.867,-0.05 11.6,0.05 3.767,0.034 12.617,0.134 26.55,0.301 9.633,0.133 18.899,0.216 27.8,0.25 6.3,0.032 13.18,0.098 20.65,0.198 z"
   id="path89" />
			<path
   d="m 150.58,52.5 c -8.333,0.217 -15.009,0.3 -20.025,0.25 -13.367,-0.167 -26.617,-0.1 -39.75,0.2 l -3.71,0.15 0.95,-0.75 62.53,0.15 z"
   id="path91" />
			<path
   d="m 229.55,66.6 0.9,0.7 -14.6,-0.15 c -13.933,0.899 -25.5,1.316 -34.699,1.25 -7.7,-0.067 -15.518,-0.2 -23.45,-0.4 -8.9,-0.2 -14.617,-0.434 -17.15,-0.7 -3.333,-0.366 -14.483,-0.633 -33.45,-0.8 -5.367,-0.066 -17.85,-0.1 -37.45,-0.1 l 0.9,-0.7 h 6.85 c 4.767,0 11.083,-0.017 18.95,-0.05 7.833,0.033 18.117,0.233 30.85,0.6 1.9,0.066 12.35,0.483 31.35,1.25 7.767,0.3 15.3,0.333 22.601,0.1 5.933,-0.166 11.6,-0.366 17,-0.6 4.033,-0.167 8.116,-0.3 12.25,-0.4 3.4,-0.067 9.78,-0.067 19.15,0 z"
   id="path93" />
		</g>
			<linearGradient
   id="l"
   x1="61.099998"
   x2="69.699997"
   y1="-150.03999"
   y2="-150.03999"
   gradientTransform="matrix(1.1628e-4,1,-1,-0.001,3.8719e-4,1.5491e-4)"
   gradientUnits="userSpaceOnUse">
			<stop
   stop-opacity=".4667"
   offset="0"
   id="stop97" />
			<stop
   stop-opacity="0"
   offset="1"
   id="stop99" />
		</linearGradient>
		<polygon
   points="66.35,70.25 88.7,53.25 211.4,53.25 233.75,70.25 229.7,72.15 70.4,72.15 "
   fill="url(#l)"
   id="polygon102"
   style="fill:url(#l)" />
		<path
   d="m 233,72.85 c -8.2,-0.066 -17.684,-0.033 -28.45,0.101 -21.533,0.2 -38.767,0.717 -51.7,1.55 -6,0.366 -13.033,0.4 -21.1,0.1 -9.967,-0.5 -18.1,-0.866 -24.4,-1.1 -7.034,-0.267 -16.083,-0.45 -27.15,-0.55 L 65.75,72.85 v -3.3 H 233 Z"
   fill="#9c8b5c"
   id="path104" />
		<rect
   x="54.5"
   y="56.799999"
   width="9.8999996"
   height="24.9"
   fill="#ccb985"
   id="rect106" />
		<rect
   x="234.35001"
   y="56.799999"
   width="9.8999996"
   height="24.9"
   fill="#ccb985"
   id="rect108" />
			<path
   d="m 56.25,61.35 -0.15,0.8 0.2,0.399 c -0.8,-0.166 -1.4,-0.166 -1.8,0 V 61.15 Z"
   fill="#baa979"
   id="path110" />
			<path
   d="m 63.05,62.8 0.9,0.05 c 0.1,0.767 0.133,1.467 0.1,2.101 l -1,-0.25 z"
   fill="#baa979"
   id="path112" />
			<path
   d="M 59.55,63.6 57.2,62.85 v -1.4 L 59,61.7 h 0.15 c 0.233,0.666 0.367,1.3 0.4,1.9 z"
   fill="#baa979"
   id="path114" />
			<polygon
   points="64.4,65 63.95,62.85 64.4,62.9 "
   fill="#baa979"
   id="polygon116" />
			<path
   d="m 62.35,64.5 -0.3,-0.1 c 0.067,-0.367 0.15,-0.634 0.25,-0.801 z"
   fill="#baa979"
   id="path118" />
			<polygon
   points="61.25,62.3 61.6,62.4 61.5,64.25 61.25,64.15 "
   fill="#baa979"
   id="polygon120" />
			<path
   d="m 56.25,61.35 0.95,0.101 v 2.5 c -0.267,0.666 -0.367,1.666 -0.3,3 0.1,1.566 0.117,2.566 0.05,3 L 56.9,70.4 56.8,70.45 C 56.633,69.183 56.55,68.2 56.55,67.5 56.417,66.1 56.334,65.033 56.3,64.3 c 0.034,-0.366 0.05,-0.649 0.05,-0.85 0.033,-0.367 0.017,-0.667 -0.05,-0.9 l -0.2,-0.399 z"
   fill="#baa979"
   id="path122" />
			<path
   d="m 61.25,62.3 v 2.95 L 60.8,63.7 v 12.55 c 0,0.267 -0.033,1.033 -0.1,2.3 -0.067,1.3 -0.05,2.351 0.05,3.15 H 59.9 V 75 c 0.133,0.5 0.233,0.8 0.3,0.9 0.267,-0.334 0.4,-1.084 0.4,-2.25 l 0.2,-11.5 z"
   fill="#baa979"
   id="path124" />
			<path
   d="m 61.6,62.4 0.65,0.199 0.05,1 c -0.1,0.167 -0.183,0.434 -0.25,0.801 -0.033,0.3 -0.05,0.817 -0.05,1.55 0,0.666 -0.033,1.166 -0.1,1.5 L 61.65,66.5 C 61.55,65.767 61.5,65.017 61.5,64.25 Z"
   fill="#baa979"
   id="path126" />
			<path
   d="m 62.85,62.75 0.2,0.05 v 10.1 c 0,0.767 0.083,2.233 0.25,4.399 0.133,1.867 0.167,3.334 0.1,4.4 h -0.8 l -0.15,-0.95 c 0.1,-0.467 0.15,-1.634 0.15,-3.5 -0.1,-5.3 -0.167,-9.267 -0.2,-11.9 0.117,2.042 0.184,3.634 0.2,4.775 0.023,-1.174 0.106,-3.632 0.25,-7.374 z"
   fill="#baa979"
   id="path128" />
			<polygon
   points="62.55,56.8 62.15,61.25 62.25,62.6 60.8,62.15 60.8,58.1 59,61.25 59.15,61.7 59,61.7 54.5,61.15 54.5,56.8 "
   fill="#8c805b"
   id="polygon130" />
			<path
   d="m 64.4,62.9 -0.95,-0.1 h -0.4 l -0.2,-0.05 C 62.916,60.783 62.867,58.8 62.7,56.8 h 1.7 z"
   fill="#8c805b"
   id="path132" />
			<path
   d="M 59.15,61.7 59,61.25 60.8,58.1 60.6,73.65 c 0,1.166 -0.133,1.916 -0.4,2.25 -0.067,-0.101 -0.167,-0.4 -0.3,-0.9 -0.033,-0.167 -0.1,-1 -0.2,-2.5 -0.167,-1.733 -0.25,-2.767 -0.25,-3.1 0.2,-2.601 0.233,-4.534 0.1,-5.801 C 59.517,63 59.383,62.366 59.15,61.7 Z"
   fill="#8c805b"
   id="path134" />
			<path
   d="m 62.4,65.35 -0.25,-4.1 0.4,-4.45 h 0.15 c 0.167,2 0.216,3.983 0.15,5.95 -0.144,3.742 -0.228,6.2 -0.25,7.375 -0.017,-1.142 -0.083,-2.733 -0.2,-4.775 z"
   fill="#8c805b"
   id="path136" />
			<path
   d="m 56.4,78.9 c 0,1.267 0.033,2.199 0.1,2.8 h -0.15 z"
   fill="#8c805b"
   id="path138" />
			<path
   d="m 55.25,64.2 c 0.233,0.6 0.333,1.467 0.3,2.6 -0.033,0.634 -0.083,1.533 -0.15,2.7 0,3.434 0.1,6.316 0.3,8.65 0.366,-0.434 0.483,-1.184 0.35,-2.25 -0.1,-1.101 -0.033,-1.851 0.2,-2.25 0.066,0.233 0.1,0.6 0.1,1.1 0,0.233 -0.017,0.583 -0.05,1.05 v 5.9 H 54.5 V 63.15 c 0.4,0.466 0.65,0.817 0.75,1.05 z"
   fill="#f7e5ad"
   id="path140" />
			<path
   d="m 57.2,63.95 0.25,-0.45 1.05,18.2 h -2 c -0.067,-0.601 -0.1,-1.533 -0.1,-2.8 l 0.15,-4.75 c 0,-1.034 0.117,-2.284 0.35,-3.75 l 0.05,-0.45 c 0.066,-0.434 0.05,-1.434 -0.05,-3 -0.067,-1.334 0.033,-2.334 0.3,-3 z"
   fill="#f7e5ad"
   id="path142" />
			<path
   d="m 60.8,63.7 1.1,3.75 0.05,0.1 c 0,1.334 0.066,3.3 0.2,5.9 0.033,0.5 0.017,1.45 -0.05,2.85 -0.034,1.167 0,2.101 0.1,2.8 l 0.4,2.601 h -1.85 c -0.1,-0.8 -0.117,-1.851 -0.05,-3.15 0.066,-1.267 0.1,-2.033 0.1,-2.3 z"
   fill="#f7e5ad"
   id="path144" />
			<path
   d="M 63.95,62.85 64.4,65 v 16.7 h -0.85 c -0.033,-1.033 0,-2.5 0.1,-4.4 0.067,-2.1 0.1,-3.566 0.1,-4.399 v -3.2 c 0.167,-2.134 0.267,-3.717 0.3,-4.75 0.033,-0.635 0,-1.335 -0.1,-2.101 z"
   fill="#f7e5ad"
   id="path146" />
			<path
   d="m 240.8,63.3 0.05,-0.5 c 0.367,0.4 0.601,1.134 0.7,2.2 l -0.399,-0.1 c -0.07,-0.633 -0.18,-1.167 -0.35,-1.6 z"
   fill="#baa979"
   id="path148" />
			<path
   d="m 237.5,64.5 c 0,-0.767 0.116,-1.333 0.35,-1.7 l 0.45,1.75 c -0.37,0 -0.63,-0.017 -0.8,-0.05 z"
   fill="#baa979"
   id="path150" />
			<path
   d="m 236.8,62.25 -0.25,0.8 0.05,1.4 -2.25,-0.101 V 61.3 c 0.533,0.066 1.184,0.134 1.95,0.2 0.27,0.2 0.43,0.45 0.5,0.75 z"
   fill="#baa979"
   id="path152" />
			<path
   d="m 237.3,62.3 c 0.3,-0.833 0.566,-1.283 0.8,-1.35 0.533,-0.066 0.917,0.399 1.15,1.399 0.563,2.813 0.862,5.021 0.9,6.625 0.003,-3.209 0.053,-5.218 0.149,-6.024 0.101,-0.767 0.25,-1.217 0.45,-1.351 0.1,-0.066 0.55,-0.116 1.35,-0.149 0.367,0.866 0.517,2.083 0.45,3.649 0,0.867 -0.05,2.134 -0.149,3.801 0,1 0.133,2.316 0.399,3.949 0.3,1.934 0.467,3.233 0.5,3.9 0.533,-0.7 0.851,-1.5 0.95,-2.4 V 81.7 h -1.65 v -4.45 c 0,-3.634 -0.217,-6.65 -0.649,-9.05 -0.134,-1.334 -0.267,-2.4 -0.4,-3.2 -0.1,-1.066 -0.333,-1.8 -0.7,-2.2 l -0.05,0.5 -0.2,-0.5 -0.25,1.8 c 0,2.567 -0.066,6.4 -0.199,11.5 0,0.367 -0.067,1.284 -0.2,2.75 -0.067,1.434 0.066,2.384 0.399,2.851 h -0.6 l -0.05,-1.8 c 0.033,-2.067 0.05,-3.617 0.05,-4.65 0,-1.833 -0.083,-3.384 -0.25,-4.65 -0.2,-1.633 -0.6,-3.649 -1.2,-6.05 l -0.45,-1.75 c -0.233,0.367 -0.35,0.934 -0.35,1.7 -0.033,0.6 -0.033,1.4 0,2.4 l -0.05,0.35 c -0.167,-0.533 -0.367,-0.934 -0.601,-1.2 l -0.05,0.2 -0.25,-3.2 0.25,-0.8 c 0.033,0.333 0.033,0.866 0,1.6 0.2,-0.601 0.37,-1.118 0.5,-1.551 z"
   fill="#baa979"
   id="path154" />
			<path
   d="m 239.25,62.35 c -0.233,-1 -0.617,-1.466 -1.15,-1.399 -0.233,0.066 -0.5,0.517 -0.8,1.35 -0.133,0.434 -0.3,0.95 -0.5,1.55 0.033,-0.733 0.033,-1.267 0,-1.6 -0.066,-0.3 -0.233,-0.55 -0.5,-0.75 -0.767,-0.066 -1.417,-0.134 -1.95,-0.2 v -4.5 h 9.9 v 17.55 c -0.1,0.9 -0.417,1.7 -0.95,2.4 -0.033,-0.667 -0.2,-1.967 -0.5,-3.9 -0.267,-1.633 -0.399,-2.949 -0.399,-3.949 0.1,-1.667 0.149,-2.934 0.149,-3.801 0.066,-1.566 -0.083,-2.783 -0.45,-3.649 -0.8,0.033 -1.25,0.083 -1.35,0.149 -0.2,0.134 -0.35,0.584 -0.45,1.351 -0.097,0.807 -0.146,2.815 -0.149,6.024 -0.04,-1.605 -0.34,-3.814 -0.9,-6.626 z"
   fill="#8c805b"
   id="path156" />
			<path
   d="m 239.45,81.7 h -0.35 c 0.101,-1.233 0.15,-3.4 0.15,-6.5 -0.033,-2.834 -0.017,-4.417 0.05,-4.75 0.233,0.833 0.333,1.934 0.3,3.3 -0.033,0.767 -0.083,1.866 -0.149,3.3 v 4.65 z"
   fill="#8c805b"
   id="path158" />
			<path
   d="m 236.8,66.25 0.05,-0.2 c 0.233,0.267 0.434,0.667 0.601,1.2 0.267,0.767 0.483,1.884 0.649,3.35 0.101,1.233 0.051,3.117 -0.149,5.65 l -0.4,5.45 h -3.2 V 65.25 c 0.601,0 1.017,0.233 1.25,0.7 0.033,0.1 0.051,0.616 0.051,1.55 v 4.2 c 0,0.733 -0.034,1.883 -0.101,3.45 0,1.366 0.117,2.5 0.351,3.399 0.633,-0.1 0.966,-1.25 1,-3.45 -0.101,-2.399 -0.15,-3.833 -0.15,-4.3 -0.033,-0.967 -0.066,-1.717 -0.1,-2.25 -0.03,-0.999 0.02,-1.766 0.15,-2.299 z"
   fill="#f7e5ad"
   id="path160" />
			<path
   d="m 240.6,62.8 0.2,0.5 c 0.167,0.434 0.283,0.967 0.351,1.601 0.066,0.566 0.1,1.75 0.1,3.55 V 79.4 c 0,0.233 0.017,0.616 0.05,1.149 0,0.5 -0.066,0.884 -0.2,1.15 h -0.75 c -0.333,-0.467 -0.467,-1.417 -0.399,-2.851 0.133,-1.466 0.2,-2.383 0.2,-2.75 0.133,-5.1 0.199,-8.933 0.199,-11.5 l 0.25,-1.798 z"
   fill="#f7e5ad"
   id="path162" />
		<rect
   x="45.450001"
   y="54.25"
   width="209.14999"
   height="5.5500002"
   fill="#9c8b5c"
   id="rect164" />
			<path
   d="m 254.6,57.3 v 1.3 l -18.5,-0.75 c -0.033,0 -8.75,0.051 -26.149,0.15 -4.233,-0.116 -8.158,-0.225 -11.775,-0.325 10.189,-0.061 23.331,-0.152 39.425,-0.274 h 12.1 c 1.47,0.033 3.1,-0.001 4.9,-0.101 z"
   fill="#9c8b5c"
   id="path166" />
			<path
   d="m 58,56.6 5.7,0.25 -12.55,0.1 c -0.733,-0.233 -1.683,-0.334 -2.85,-0.3 -1.3,0.066 -2.25,0.1 -2.85,0.1 v -0.9 h 3.5 l 3.55,0.45 c 0.167,0.101 1.033,0.184 2.6,0.25 2.481,0.071 3.448,0.088 2.9,0.05 z"
   fill="#9c8b5c"
   id="path168" />
			<path
   d="m 254.6,59.05 v 0.75 h -42.3 l -2.1,-0.149 c -7.967,-0.601 -19.25,-0.9 -33.851,-0.9 l -3.699,-0.025 c 6.463,-0.084 15.196,-0.209 26.199,-0.375 9.134,0.567 16.45,0.867 21.95,0.9 7.5,-10e-4 18.77,-0.067 33.8,-0.201 z"
   fill="#9c8b5c"
   id="path170" />
			<path
   d="m 172.25,56.5 8.95,0.05 c -7.967,0.467 -13.95,0.75 -17.95,0.851 -3.267,0.066 -8.816,0.05 -16.65,-0.051 -7.133,-0.066 -12.683,-0.033 -16.649,0.101 l 1.55,0.45 c -2.733,0.033 -6.85,-0.051 -12.35,-0.25 0.533,0.166 1.017,0.233 1.45,0.199 3.8,0.167 8.033,0.284 12.7,0.351 l 4.85,0.399 c -7.467,0 -14.2,0.067 -20.2,0.2 -10.134,0.233 -22.217,0.351 -36.25,0.351 C 65.601,59.083 53.518,59.033 45.451,59 v -1.45 c 1.433,0.066 4.683,0.101 9.75,0.101 3,0.033 7.466,0.017 13.4,-0.051 -0.633,0.067 -1.167,0.184 -1.6,0.351 0.3,0.233 0.633,0.3 1,0.2 1.133,0.199 2.55,0.3 4.25,0.3 0.967,-0.033 2.383,-0.084 4.25,-0.15 h 16.2 c 1.333,0.033 3.333,-0.033 6,-0.2 0.767,0 1.883,-0.083 3.35,-0.25 0.267,0 0.717,0.034 1.35,0.101 0.533,0.033 0.967,-0.017 1.3,-0.15 -0.8,-0.3 -1.617,-0.5 -2.45,-0.6 h 5.25 c 2.2,0 4.4,-0.05 6.6,-0.15 3.733,0.267 8.283,0.334 13.65,0.2 3.033,-0.066 7.566,-0.217 13.6,-0.45 10.3,-0.202 20.6,-0.302 30.9,-0.302 z"
   fill="#9c8b5c"
   id="path172" />
			<path
   d="m 254.6,56.15 v 0.8 c -2.233,-0.033 -5.616,-0.15 -10.149,-0.351 3.43,-0.099 6.82,-0.249 10.15,-0.449 z"
   fill="#9c8b5c"
   id="path174" />
			<path
   d="m 254.6,54.25 v 1.5 L 234.25,56.3 214.2,56.05 c -2.834,0 -7.967,0.05 -15.4,0.15 -6.5,0.1 -11.633,0.133 -15.399,0.1 -1.367,0 -3.384,-0.1 -6.051,-0.3 2.9,-0.033 9.367,-0.116 19.4,-0.25 8,-0.1 14.467,-0.15 19.4,-0.15 h 8 c 2.8,0.034 4.566,0.051 5.3,0.051 2.1,-0.101 3.85,-0.351 5.25,-0.75 0.566,-0.167 1,-0.384 1.3,-0.65 h 18.6 z"
   fill="#9c8b5c"
   id="path176" />
			<path
   d="m 120.45,56.55 -6.35,0.5 c -2.2,0.101 -4.4,0.15 -6.6,0.15 L 82,57.25 109.6,56.4 c 2.4,0.1 6.02,0.15 10.85,0.15 z"
   fill="#9c8b5c"
   id="path178" />
			<path
   d="m 100.85,56.1 c 2.267,0 4.816,0.084 7.65,0.25 l 1.05,0.051 L 63.7,56.85 58,56.6 c 0.548,0.038 -0.419,0.021 -2.9,-0.05 -1.567,-0.066 -2.434,-0.149 -2.6,-0.25 l -3.55,-0.45 c 11.7,0.067 21.216,0 28.55,-0.199 2.333,-0.067 8.917,-0.351 19.75,-0.851 l -0.45,0.15 c 0.034,0.5 0.617,0.833 1.75,1 0.133,0 0.9,0.05 2.3,0.15 z"
   fill="#9c8b5c"
   id="path180" />
			<path
   d="m 99.25,54.25 -2,0.55 C 86.417,55.3 79.833,55.583 77.5,55.651 70.167,55.85 60.65,55.918 48.95,55.85 h -3.5 v -1.6 z"
   fill="#7a6d48"
   id="path182" />
			<path
   d="m 236,54.25 c -0.3,0.267 -0.733,0.483 -1.3,0.65 -1.4,0.399 -3.15,0.649 -5.25,0.75 -0.733,0 -2.5,-0.017 -5.3,-0.051 h -8 c -4.934,0 -11.4,0.051 -19.4,0.15 -10.033,0.134 -16.5,0.217 -19.4,0.25 l -9.449,0.05 c -5,0 -12.518,0.084 -22.551,0.25 -10,0.134 -17.516,0.2 -22.55,0.2 l -2.35,0.05 c -4.833,0 -8.45,-0.05 -10.85,-0.149 h -0.05 l -1.05,-0.051 c -2.833,-0.166 -5.383,-0.25 -7.65,-0.25 -1.4,-0.1 -2.167,-0.149 -2.3,-0.149 -1.133,-0.167 -1.716,-0.5 -1.75,-1 l 2.45,-0.7 z"
   fill="#7a6d48"
   id="path184" />
			<path
   d="m 254.6,58.6 v 0.45 c -15.033,0.134 -26.3,0.2 -33.8,0.2 -5.5,-0.033 -12.816,-0.333 -21.95,-0.9 l -8.449,-0.5 c 4.333,0.101 10.85,0.15 19.55,0.15 17.399,-0.1 26.116,-0.15 26.149,-0.15 z"
   fill="#7a6d48"
   id="path186" />
			<path
   d="m 176.35,58.75 c 14.601,0 25.884,0.3 33.851,0.9 l 2.1,0.149 H 45.451 V 59 c 8.066,0.033 20.15,0.083 36.25,0.15 14.033,0 26.116,-0.117 36.25,-0.351 l 20.2,-0.2 c 0.033,0 10.3,0.051 30.8,0.15 h 7.4 z"
   fill="#7a6d48"
   id="path188" />
			<path
   d="m 68.6,57.6 c -5.934,0.067 -10.4,0.084 -13.4,0.051 -5.067,0 -8.317,-0.034 -9.75,-0.101 v -0.8 c 0.6,0 1.55,-0.033 2.85,-0.1 1.167,-0.034 2.117,0.066 2.85,0.3 l 53.8,-0.476 z"
   fill="#7a6d48"
   id="path190" />
			<path
   d="m 131.5,57.9 c 0.2,-0.034 0.483,-0.051 0.85,-0.051 l 49.75,0.7 c -16.6,0 -32.183,-0.116 -46.75,-0.35 h -2.05 c -4.667,-0.066 -8.9,-0.184 -12.7,-0.351 -0.434,0.034 -0.917,-0.033 -1.45,-0.199 5.5,0.201 9.62,0.285 12.35,0.251 z"
   fill="#7a6d48"
   id="path192" />
			<path
   d="m 254.6,55.75 v 0.4 c -3.333,0.199 -6.717,0.35 -10.149,0.449 -5.8,0.267 -11.267,0.4 -16.4,0.4 l -10.274,-0.075 c 7.836,-0.099 14.312,-0.291 19.425,-0.575 l 17.4,-0.599 z"
   fill="#7a6d48"
   id="path194" />
		<path
   d="m 62.1,42.5 c 1.966,-1.833 4.816,-4.184 8.55,-7.05 l 5.05,-3.8 5.15,0.2 c 4.833,0.133 10.75,0.183 17.75,0.15 13.4,-0.1 28.466,0 45.2,0.3 11.967,0.2 21.816,0.434 29.55,0.7 9.167,0.3 19.983,0.167 32.45,-0.4 6.2,-0.267 11.5,-0.583 15.9,-0.95 l 4.899,3.2 c 3.767,2.567 6.851,4.95 9.25,7.15 2.367,2.2 6.25,4.9 11.65,8.1 2.7,1.601 5.167,2.983 7.4,4.15 H 45.449 C 53.382,49.316 58.932,45.4 62.099,42.5 Z"
   fill="#d9c58d"
   id="path196" />
		<path
   d="m 62.1,42.5 c 1.966,-1.833 4.816,-4.184 8.55,-7.05 l 5.05,-3.8 5.15,0.2 c 4.833,0.133 10.75,0.183 17.75,0.15 12.667,-0.1 27.816,0.25 45.45,1.05 9.167,0.4 19.101,0.884 29.8,1.45 9.167,0.3 19.9,-0.083 32.2,-1.15 6.134,-0.533 11.351,-1.1 15.65,-1.7 l 4.899,3.2 c 3.767,2.567 6.851,4.95 9.25,7.15 2.367,2.2 6.25,4.9 11.65,8.1 2.7,1.601 5.167,2.983 7.4,4.15 H 45.449 C 53.382,49.316 58.932,45.4 62.099,42.5 Z"
   fill="#d9c58d"
   id="path198" />
		<g
   fill="#c4b076"
   id="g216">
			<path
   d="m 69.25,36.45 1.2,-0.9 6.25,0.05 c 14.633,-0.466 23.816,-0.733 27.55,-0.8 0.1,0 7.517,-0.233 22.25,-0.7 7.167,-0.233 14.933,-0.216 23.3,0.051 14.367,0.433 39.583,0.433 75.65,0 l 1.55,1.1 c -23.066,0.434 -52.134,0.25 -87.2,-0.55 -13.2,-0.3 -21.3,-0.334 -24.3,-0.101 -7.8,0.601 -14.517,0.983 -20.15,1.15 l 6.1,0.05 c 18.1,0.134 49.033,0.25 92.8,0.351 5.833,0 17.083,-0.067 33.75,-0.2 l 0.7,0.45 -12.3,0.35 c -16.867,0.634 -31.95,0.934 -45.25,0.9 l -14.95,-0.2 c -3.567,-0.233 -24.967,-0.5 -64.2,-0.8 z"
   id="path200" />
			<path
   d="m 219.35,44.35 c 6.767,-0.6 12.733,-0.983 17.9,-1.149 l 1,0.8 c -4.8,0.233 -11.25,0.8 -19.35,1.7 -6.934,0.8 -12.367,1.2 -16.301,1.2 -2.967,0 -7.399,0.149 -13.3,0.449 -5.133,0.267 -11.667,0.367 -19.6,0.301 -4.8,-0.034 -10.9,0.017 -18.3,0.149 -4.601,0.101 -11.45,0 -20.55,-0.3 -8.7,-0.3 -17,-0.5 -24.9,-0.6 -9.833,-0.1 -18.25,-0.25 -25.25,-0.45 -7.333,-0.233 -14.8,-0.533 -22.4,-0.9 l 1.65,-1.25 c 11.1,0.634 20.05,1.084 26.85,1.35 8.3,0.333 16.583,0.533 24.85,0.6 2.967,0.033 15.4,0.2 37.3,0.5 16.8,0.233 27.3,0.316 31.5,0.25 4.1,-0.066 9.183,-0.35 15.25,-0.85 6.633,-0.534 10.683,-0.834 12.149,-0.9 1,-0.033 4.83,-0.333 11.5,-0.9 z"
   id="path202" />
			<path
   d="m 211.65,51.65 c 1.466,-0.101 6.017,-0.4 13.649,-0.9 3.434,-0.233 7.184,-0.517 11.25,-0.85 3.066,-0.2 6.45,-0.301 10.15,-0.301 l 1.55,0.9 c -2.233,0.066 -4.533,0.233 -6.9,0.5 -2.333,0.3 -7.033,0.517 -14.1,0.65 -3.6,0.066 -8.333,0.399 -14.2,1 -3.133,0.3 -16.017,0.316 -38.649,0.05 -20.7,-0.233 -44.05,-0.7 -70.05,-1.4 -26.167,-0.767 -43.517,-1.267 -52.05,-1.5 l 1.45,-1 c 12.333,0.167 29.533,0.55 51.6,1.15 25.566,0.733 58.383,1.383 98.45,1.95 1.87,0.035 4.48,-0.049 7.85,-0.249 z"
   id="path204" />
			<path
   d="m 221.25,46.9 c 6.033,-0.634 12,-0.884 17.9,-0.75 l 2.199,0.05 1.101,0.7 c -5.367,0.1 -10.8,0.366 -16.3,0.8 -5.467,0.434 -10.884,1.033 -16.25,1.8 -2.934,0.4 -7.051,0.583 -12.351,0.55 l -43.8,-0.399 c -11.467,-0.034 -20.5,-0.084 -27.1,-0.15 -11.233,-0.167 -25.933,-0.583 -44.1,-1.25 -11.066,-0.4 -19.867,-0.767 -26.4,-1.1 l 1.15,-0.851 6.15,0.45 c 4.633,0.467 20.533,0.95 47.7,1.45 17.533,0.3 42.1,0.566 73.7,0.8 6.467,0.066 11.367,0.033 14.7,-0.1 1.7,-0.067 4.783,-0.267 9.25,-0.601 2.4,-0.165 6.55,-0.632 12.45,-1.399 z"
   id="path206" />
			<path
   d="m 83.75,41.65 c -3.533,0.066 -9,0.066 -16.4,0 l -5,-0.051 1.6,-1.149 h 3.35 c 6.367,0.066 19.5,0.383 39.4,0.95 21.8,0.633 34.083,0.983 36.85,1.05 10,0.2 27.117,0.149 51.351,-0.15 2.1,0 7.433,-0.333 16,-1 9.699,-0.767 17.3,-1.267 22.8,-1.5 l 1.45,0.95 c -6.4,0.366 -10.667,0.616 -12.801,0.75 -12.333,1.066 -19.983,1.717 -22.949,1.95 -4.034,0.333 -13.851,0.434 -29.45,0.3 -16.467,-0.134 -31.534,-0.417 -45.2,-0.85 -13.667,-0.467 -23.483,-0.801 -29.45,-1 -6.333,-0.2 -10.183,-0.284 -11.55,-0.25 z"
   id="path208" />
			<path
   d="m 66,38.85 1.3,-0.949 9.95,0.1 c 11.066,0.1 24.133,0.116 39.2,0.05 15.633,-0.1 25.133,-0.133 28.5,-0.1 5.433,0.066 12.383,0.233 20.85,0.5 8.5,0.267 14.101,0.416 16.8,0.45 2.967,0.033 9.733,-0.117 20.301,-0.45 13.232,-0.4 22.466,-0.65 27.699,-0.75 l 1,0.649 c -3.8,0.134 -6.783,0.267 -8.949,0.4 -11.667,0.733 -17.834,1.116 -18.5,1.15 -4.867,0.233 -11.801,0.35 -20.801,0.35 -6.866,0 -12.767,-0.167 -17.699,-0.5 -5.268,-0.3 -11.334,-0.483 -18.2,-0.55 -7.567,-0.066 -13.55,-0.05 -17.95,0.05 -4.567,0.134 -8.9,0.184 -13,0.15 -7.934,-0.067 -16.45,-0.15 -25.55,-0.25 l -24.95,-0.3 z"
   id="path210" />
			<path
   d="m 116.1,54.25 c -5.667,-0.3 -9.267,-0.467 -10.8,-0.5 -2.8,-0.1 -6.9,-0.134 -12.3,-0.1 -5.667,0.033 -8.483,0.133 -8.45,0.3 0,0.066 -5.533,0 -16.6,-0.2 L 46.9,53.3 49.45,51.651 57.1,51.8 c 11.333,0.3 20.683,0.483 28.05,0.55 4,0.034 11.583,0.101 22.75,0.2 10.633,0.134 28.133,0.7 52.5,1.7 z"
   id="path212" />
			<path
   d="m 252.35,52.5 1.7,1.15 c -3.467,0 -6.649,0.199 -9.55,0.6 h -7.85 c 4.666,-0.733 9.399,-1.333 14.199,-1.8 l 1.5,0.05 z"
   id="path214" />
		</g>
			<path
   d="m 229.85,40.35 c 2.033,0.134 3.517,0.217 4.45,0.25 l 1.05,0.95 -8.8,0.4 c -1.033,0.066 -2.816,0.116 -5.35,0.149 -2.267,0.034 -4.05,0.117 -5.351,0.25 -3.433,0.334 -5.566,0.483 -6.399,0.45 5.27,-1.433 12.07,-2.249 20.4,-2.449 z"
   fill="#96875b"
   id="path218" />
			<path
   d="m 125.55,42.35 c -2.837,0.06 -5.054,-0.074 -6.65,-0.399 0.333,-0.134 0.7,-0.134 1.1,0 2.47,0.132 4.32,0.266 5.55,0.399 z"
   fill="#96875b"
   id="path220" />
			<path
   d="m 167.7,44.15 c -6.867,0.1 -12.017,0.166 -15.45,0.199 -6.134,0.034 -11.3,-0.149 -15.5,-0.55 -1.233,-0.1 -3.067,-0.333 -5.5,-0.7 -2.434,-0.366 -4.267,-0.616 -5.5,-0.75 z"
   fill="#96875b"
   id="path222" />
			<path
   d="m 73.5,41.05 c -0.434,0.233 -0.85,0.3 -1.25,0.2 -1.467,0.167 -4.767,0.283 -9.9,0.35 l 0.8,-0.6 h 3.95 c 0.533,0 1.6,-0.066 3.2,-0.2 1.467,-0.067 2.533,0.016 3.2,0.25 z"
   fill="#96875b"
   id="path224" />
			<path
   d="m 119.35,47.6 c -2.1,-0.1 -5.3,-0.35 -9.6,-0.75 -0.767,-0.033 -1.367,-0.066 -1.8,-0.1 -0.8,-0.066 -1.4,-0.167 -1.8,-0.3 0.767,-0.066 1.733,-0.101 2.9,-0.101 0.633,0 1.583,0.017 2.85,0.051 l 60.05,2.449 c -1.2,0 -6.467,-0.083 -15.8,-0.25 C 139.78,48.333 127.52,48 119.35,47.6 Z"
   fill="#96875b"
   id="path226" />
			<path
   d="m 106.5,50.45 h -9.85 c -12,0 -20,-0.05 -24,-0.15 C 69.217,50.2 65.334,49.934 61,49.5 l -2.1,-0.2 24.3,0.351 c 10.267,0.399 18.03,0.665 23.3,0.799 z"
   fill="#96875b"
   id="path228" />
			<polygon
   points="115.05,50.2 110.2,50.4 99.2,49.95 "
   fill="#96875b"
   id="polygon230" />
			<path
   d="m 148.55,53.8 c -3.1,0.167 -7.75,0.316 -13.95,0.45 H 98.65 C 91.517,54.116 86.167,53.967 82.6,53.8 c -5,-0.267 -10.633,-0.649 -16.9,-1.149 -1.039,-0.121 -1.889,-0.188 -2.55,-0.2 3.499,-0.021 8.565,0.063 15.2,0.25 l 57.4,0.899 c 3.3,0.134 7,0.2 11.1,0.2 z"
   fill="#96875b"
   id="path232" />
			<path
   d="m 239.3,51.5 c -5.1,-0.033 -8.899,0 -11.399,0.1 0.566,-0.066 2.433,-0.199 5.6,-0.399 2.3,-0.134 4.167,-0.316 5.6,-0.55 0.067,0 0.801,-0.2 2.2,-0.601 0.9,-0.267 1.634,-0.366 2.2,-0.3 l 3.7,0.15 2.7,1.55 -10.6,0.05 z"
   fill="#96875b"
   id="path234" />
			<path
   d="m 172.35,36.7 16.851,-0.05 c 8.233,0.066 15.316,0.033 21.25,-0.101 l 18.399,-0.05 1.351,0.95 -28.9,-0.05 c -7,0 -16.167,-0.217 -27.5,-0.65 l -1.45,-0.049 z"
   fill="#96875b"
   id="path236" />
			<path
   d="m 128.65,36.85 c -11.7,0.034 -21.633,-0.116 -29.8,-0.449 -3.3,-0.267 -5.784,-0.45 -7.45,-0.551 2.9,0.034 7.25,0.101 13.05,0.2 l 54,0.65 c -13.23,0.1 -23.17,0.15 -29.8,0.15 z"
   fill="#96875b"
   id="path238" />
			<path
   d="m 222.1,31.9 0.65,0.45 c -5.7,0.101 -12.1,0.117 -19.2,0.051 z"
   fill="#96875b"
   id="path240" />
			<path
   d="m 170.4,42.7 c -4.867,0 -8.983,-0.184 -12.351,-0.55 -1.066,-0.101 -2.383,-0.134 -3.95,-0.101 -1.767,0.033 -3.083,0.05 -3.949,0.05 -4.434,0 -9.217,-0.133 -14.351,-0.399 -3.975,-0.226 -7.558,-0.384 -10.75,-0.476 l 17.45,-0.024 40.25,1.35 c -5.47,0.1 -9.58,0.15 -12.35,0.15 z"
   fill="#f0dda8"
   id="path242" />
			<path
   d="m 159.15,47.05 -19.8,-0.149 c -7.934,-0.067 -14.534,-0.167 -19.8,-0.301 -3.066,-0.033 -6.816,-0.316 -11.25,-0.85 l -3.15,-0.25 h 15.5 z"
   fill="#f0dda8"
   id="path244" />
			<path
   d="m 67.4,40.1 c -1.3,0.067 -2.35,0.084 -3.15,0.051 L 65,39.6 c 0.233,0.034 0.566,0.051 1,0.051 l 25.4,0.899 c -2.667,0.033 -6.667,-0.033 -12,-0.2 -5.334,-0.166 -9.334,-0.25 -12,-0.25 z"
   fill="#f0dda8"
   id="path246" />
			<path
   d="m 232.5,38.95 2.45,1.7 -5.101,-0.301 c -4,-0.199 -7.767,-0.283 -11.3,-0.25 0.8,-0.267 1.9,-0.466 3.3,-0.6 0.767,-0.066 1.9,-0.15 3.4,-0.25 1.6,-0.2 3.184,-0.3 4.75,-0.3 h 2.5 z"
   fill="#f0dda8"
   id="path248" />
			<path
   d="m 237.75,48.4 h 7 l 1.45,0.899 -3.351,-0.05 c -4.899,-0.1 -8.566,-0.15 -11,-0.15 0.601,-0.033 1.584,-0.149 2.95,-0.35 1.3,-0.199 2.28,-0.315 2.95,-0.349 z"
   fill="#f0dda8"
   id="path250" />
			<path
   d="m 142.48,35.35 81.475,0.9 c -4.5,0.167 -9,0.267 -13.5,0.3 -5.934,0.134 -13.017,0.167 -21.25,0.101 -9.967,-0.034 -21.15,-0.25 -33.55,-0.65 -2.2,-0.033 -3.851,-0.066 -4.95,-0.1 -1.934,-0.067 -3.567,-0.167 -4.9,-0.301 -1.23,-0.127 -2.34,-0.211 -3.33,-0.25 z"
   fill="#f0dda8"
   id="path252" />
			<path
   d="m 93.65,35.35 c -1.1,0.101 -1.983,0.167 -2.65,0.2 -1.233,0.066 -2.05,-0.05 -2.45,-0.35 0.467,-0.101 1.684,-0.2 3.65,-0.3 l 5.15,-0.551 c 0.3,-0.033 0.617,-0.05 0.95,-0.05 0.267,-0.033 0.517,-0.133 0.75,-0.3 l 19.8,-0.45 c -10.97,1.234 -19.367,1.835 -25.2,1.801 z"
   fill="#f0dda8"
   id="path254" />
			<path
   d="m 116.4,50.65 -9.9,-0.2 c -5.267,-0.134 -13.033,-0.4 -23.3,-0.8 l -29.9,-1.3 0.45,-0.3 c 0.867,0.066 1.517,0.101 1.95,0.101 l 6.35,0.05 c 0.534,-0.2 1.017,-0.134 1.45,0.2 z"
   fill="#f0dda8"
   id="path256" />
			<path
   d="m 146.85,53.8 c -4.1,0 -7.8,-0.066 -11.1,-0.2 -4.5,-0.133 -9.867,-0.399 -16.1,-0.8 -7.1,-0.434 -12.433,-0.767 -16,-1 l 57.05,1.55 c -4.6,0.3 -9.22,0.45 -13.85,0.45 z"
   fill="#f0dda8"
   id="path258" />
		<path
   d="m 220.15,54.5 c 2.732,-0.167 7.149,-0.283 13.25,-0.35 6.066,-0.067 9.767,-0.034 11.1,0.1 1.767,0.167 5.233,0.167 10.4,0 -2.5,0.6 -5.25,0.95 -8.25,1.05 -1.067,0.033 -4.483,0 -10.25,-0.1 -5.367,-0.134 -9.284,-0.101 -11.75,0.1 -3.467,0.267 -11.434,0.566 -23.9,0.9 -12.967,0.366 -22.1,0.517 -27.4,0.45 -12.699,-0.267 -23.666,-0.5 -32.899,-0.7 -17.767,-0.367 -29.534,-0.517 -35.3,-0.45 -6.967,0.066 -16.483,0.033 -28.55,-0.1 -11.8,-0.1 -18.784,-0.233 -20.95,-0.4 -1.733,-0.134 -3.967,-0.134 -6.7,0 l -3.6,0.3 0.1,-1.05 9.45,0.3 c 6.934,0.167 12.017,0.15 15.25,-0.05 3,-0.2 11.533,-0.25 25.6,-0.15 16.066,0.134 25.15,0.184 27.25,0.15 6.667,-0.134 23.383,0.25 50.15,1.15 3.267,0.066 11.316,-0.067 24.149,-0.4 11.93,-0.333 19.55,-0.583 22.85,-0.75 z"
   fill="#f0dda8"
   id="path260" />
		<path
   d="m 49.5,53.25 c 2.2,-0.033 4.033,-0.017 5.5,0.05 2.333,0.134 13.217,0.417 32.65,0.851 -4.333,0.1 -8.1,0.149 -11.3,0.149 -1.667,0 -3.917,0.084 -6.75,0.25 -2.833,0.167 -4.917,0.25 -6.25,0.25 -1.6,0 -4.934,-0.1 -10,-0.3 l -7.9,-0.25 1.2,-0.95 z"
   fill="#d9c58d"
   id="path262" />
		<path
   d="m 230.35,53 c -2.899,0.767 -5.233,1.2 -7,1.3 -10.333,0.334 -17.283,0.566 -20.85,0.7 l -16.65,0.5 c -9.6,0.167 -18.6,0.167 -27,0 -2.899,-0.066 -7.217,-0.25 -12.949,-0.55 -5.101,-0.3 -7.734,-0.45 -7.9,-0.45 l 19.35,-0.5 c 4.533,-0.134 15.917,-0.2 34.15,-0.2 5.33,0 18.28,-0.267 38.85,-0.8 z"
   fill="#d9c58d"
   id="path264" />
		<path
   d="m 171.75,55.4 c 2.133,-0.301 3.934,-0.5 5.4,-0.601 10.1,-0.434 18.216,-0.649 24.35,-0.649 4.434,0 10.217,0.166 17.35,0.5 -10.333,0.1 -18.733,0.267 -25.199,0.5 l -24.65,0.65 2.75,-0.4 z"
   fill="#96875b"
   id="path266" />
		<path
   d="m 250.35,59.15 -5.85,0.15 c -13.767,0.134 -23.15,0.367 -28.15,0.7 -5.533,0.366 -16.1,0.7 -31.699,1 -7.467,0.1 -20.684,-0.184 -39.65,-0.85 -5.733,-0.2 -15,-0.384 -27.8,-0.551 -13.833,-0.133 -22.017,-0.116 -24.55,0.051 -4.8,0.366 -14.017,0.5 -27.65,0.399 l -19,-0.249 9.5,-0.45 c 6.7,-0.333 10.917,-0.566 12.65,-0.699 4.033,-0.334 10.7,-0.301 20,0.1 2.1,0.1 8.4,0.15 18.9,0.15 11.2,0 17.9,0.033 20.1,0.1 5,0.1 22.333,0.2 52,0.3 6.866,0.134 13.1,0.134 18.699,0 4.87,-0.101 22.37,-0.151 52.5,-0.151 z"
   fill="#7a6d48"
   id="path268" />
		<path
   d="m 173.85,59 c 3.434,-0.134 6.184,-0.283 8.25,-0.45 l 13.051,0.601 c -7,0.665 -13.05,0.949 -18.15,0.849 l -27.15,-0.85 -0.7,-0.15 10.399,0.05 c 7.37,0.033 12.13,0.016 14.3,-0.05 z"
   fill="#9c8b5c"
   id="path270" />
		<path
   d="m 50.85,59.4 c 4.2,-0.267 7.867,-0.4 11,-0.4 5,0 14.917,0.25 29.75,0.75 -12.333,0.167 -20.833,0.333 -25.5,0.5 -2.9,0.1 -7.233,0.333 -13,0.7 l -7.75,0.55 0.1,-1.7 z"
   fill="#7a6d48"
   id="path272" />
		<path
   d="m 56.6,54.75 27.25,0.8 -23.25,0.7 c -3.733,0.1 -7.383,0.066 -10.95,-0.1 l -4.2,-0.301 c -0.134,-0.066 -0.217,-0.149 -0.25,-0.25 -0.1,-0.166 0.066,-0.333 0.5,-0.5 1.333,-0.432 4.967,-0.549 10.9,-0.349 z"
   fill="#f0dda8"
   id="path274" />
		<path
   d="m 85.85,34.8 c -2.367,0.8 -5.25,1.101 -8.65,0.9 -2.367,-0.134 -3.6,-0.417 -3.7,-0.851 -0.1,-0.399 0.633,-0.816 2.2,-1.25 1.167,-0.366 3.216,-0.267 6.15,0.301 1.433,0.267 2.767,0.567 4,0.9 z"
   fill="#96875b"
   id="path276" />
		<path
   d="m 242.05,51.15 1.15,-0.101 c 0.767,0 1.149,0.15 1.149,0.45 0,0.467 -0.267,0.9 -0.8,1.3 -0.633,0.467 -1.45,0.7 -2.45,0.7 -0.767,0 -1.899,-0.116 -3.399,-0.35 -1.5,-0.267 -2.5,-0.4 -3,-0.4 l -5.6,-0.249 4.15,-1.05 c 2.9,-0.667 4.7,-0.934 5.4,-0.8 1.1,0.234 2.23,0.4 3.4,0.5 z"
   fill="#96875b"
   id="path278" />
			<path
   d="m 217.4,33.8 c 1,0 2,0.134 3,0.4 l 1.05,0.3 c -0.4,0 -0.684,-0.017 -0.851,-0.05 0.067,0.033 0.9,0.184 2.5,0.45 0.467,0.066 1.167,0.183 2.101,0.35 -0.4,0 -0.934,0.066 -1.601,0.2 -0.733,0.166 -1.267,0.25 -1.6,0.25 -0.566,-0.033 -0.95,0 -1.15,0.1 l 0.601,0.15 c -0.367,0.066 -0.834,0.083 -1.4,0.05 -0.866,-0.066 -1.35,-0.1 -1.45,-0.1 -0.366,0.1 -0.649,0.149 -0.85,0.149 -0.233,0.033 -0.55,0.017 -0.95,-0.05 -0.967,-0.033 -1.684,-0.1 -2.149,-0.2 -0.034,-0.166 0.066,-0.283 0.3,-0.35 0,-0.5 0.366,-0.717 1.1,-0.65 l -1.9,-0.399 c 0.133,-0.367 0.633,-0.584 1.5,-0.65 0.43,0 1.02,0.017 1.75,0.05 z"
   fill="#96875b"
   id="path280" />
			<path
   d="m 216,35 0.25,-0.2 2.3,0.2 c 0.066,0.467 -0.017,0.733 -0.25,0.8 -0.1,0.066 -0.316,0.084 -0.649,0.05 -0.334,-0.033 -0.551,-0.05 -0.65,-0.05 -0.634,0 -1,-0.017 -1.1,-0.05 -0.367,-0.1 -0.483,-0.35 -0.351,-0.75 0.17,-0.033 0.32,-0.033 0.45,0 z"
   fill="#635a3c"
   id="path282" />
				<path
   d="m 216.1,35.25 c 0.067,-0.866 0.017,-1.566 -0.149,-2.1 l 1.149,-1.101 0.351,1.3 c 0.2,0.934 0.283,1.584 0.25,1.95 l -0.25,0.3 H 216.85 C 216.52,35.4 216.27,35.283 216.1,35.25 Z"
   fill="#97979c"
   id="path284" />
				<polygon
   points="215.95,33.15 216.7,32.45 216.1,33.85 "
   fill="#76767a"
   id="polygon286" />
				<path
   d="m 217.35,35.6 c 0.067,-0.267 0.051,-0.483 -0.05,-0.649 l -0.2,-0.25 c -0.066,-0.167 -0.183,-0.283 -0.35,-0.351 L 216.1,34.1 v -0.25 l 0.601,-1.399 0.399,-0.4 0.351,1.3 c 0.2,0.934 0.283,1.584 0.25,1.95 l -0.25,0.3 h -0.1 z"
   fill="#5b5b5e"
   id="path288" />
				<path
   d="m 213.2,31.25 c 0.033,-1 0.517,-1.767 1.45,-2.3 0.8,-0.434 1.583,-0.55 2.35,-0.35 1.467,0.367 2.1,1.283 1.9,2.75 -0.101,0.733 -0.5,1.383 -1.2,1.95 -0.634,0.533 -1.184,0.767 -1.65,0.7 -0.866,-0.1 -1.45,-0.233 -1.75,-0.4 -0.77,-0.433 -1.13,-1.216 -1.1,-2.35 z"
   fill="#d9d9e0"
   id="path290" />
				<path
   d="m 213.45,31.4 c 0.033,-0.8 0.6,-1.367 1.7,-1.7 0.899,-0.3 1.75,-0.367 2.55,-0.2 1.066,0.267 1.517,1.117 1.35,2.55 -0.066,0.566 -0.417,1.084 -1.05,1.55 -0.6,0.434 -1.117,0.617 -1.55,0.551 -0.967,-0.134 -1.567,-0.267 -1.8,-0.4 -0.83,-0.401 -1.23,-1.185 -1.2,-2.351 z"
   fill="#7e7e82"
   id="path292" />
				<path
   d="m 213.6,31.05 c 0.033,-0.833 0.483,-1.45 1.351,-1.85 0.733,-0.333 1.467,-0.417 2.2,-0.25 1.3,0.267 1.883,1.033 1.75,2.3 -0.067,0.566 -0.417,1.083 -1.051,1.55 -0.6,0.434 -1.116,0.617 -1.55,0.55 -0.833,-0.1 -1.383,-0.216 -1.649,-0.35 -0.7,-0.366 -1.05,-1.017 -1.05,-1.95 z"
   fill="#ababb0"
   id="path294" />
				<path
   d="m 216.35,28.85 c 0.367,0 0.634,0.033 0.801,0.1 0.8,0.167 1.333,0.55 1.6,1.15 l -0.1,0.6 c -0.167,0.633 -0.584,1.183 -1.25,1.649 -0.601,0.467 -1.317,0.567 -2.15,0.301 0.066,-0.067 0.316,-0.15 0.75,-0.25 0.366,-0.067 0.583,-0.2 0.65,-0.4 -0.367,0.134 -0.584,0.134 -0.65,0 0.066,-0.133 0.184,-0.267 0.35,-0.4 l 0.25,-0.65 c 0.134,-0.4 0.2,-0.733 0.2,-1 0,-0.434 -0.149,-0.65 -0.45,-0.65 v -0.45 z"
   fill="#9c9ca1"
   id="path296" />
				<path
   d="m 215.45,29.6 c 0,0.233 -0.067,0.533 -0.2,0.9 0,0.033 0.017,0.2 0.05,0.5 0.033,0.167 0.017,0.316 -0.05,0.45 -0.167,0.366 -0.45,0.417 -0.85,0.15 -0.4,-0.3 -0.567,-0.617 -0.5,-0.95 L 214,30.4 c 0,-0.2 0.184,-0.417 0.55,-0.65 0.23,-0.2 0.53,-0.25 0.9,-0.15 z"
   fill="#bfbfc4"
   id="path298" />
			<polygon
   points="78.35,35.1 78.1,35.35 77.6,34.8 "
   fill="#76767a"
   id="polygon300" />
			<path
   d="m 81.5,34.2 c -0.1,0.467 -0.567,0.8 -1.4,1 -0.2,0.033 -0.85,0.116 -1.95,0.25 -0.5,0.033 -1.066,-0.05 -1.7,-0.25 -0.7,-0.233 -1.067,-0.5 -1.1,-0.8 -0.034,-0.567 0.733,-0.967 2.3,-1.2 0.867,-0.101 1.717,-0.066 2.55,0.1 0.967,0.2 1.4,0.5 1.3,0.9 z"
   fill="#d9d9e0"
   id="path302" />
			<path
   d="m 81.25,34.25 c -0.133,0.7 -1.317,1.116 -3.55,1.25 -0.467,0.066 -1,0.017 -1.6,-0.15 -0.633,-0.166 -0.967,-0.383 -1,-0.649 -0.067,-0.601 0.517,-0.967 1.75,-1.101 0.9,-0.1 1.816,-0.1 2.75,0 1.133,0.1 1.683,0.317 1.65,0.65 z"
   fill="#7e7e82"
   id="path304" />
			<path
   d="m 81.1,34.1 c -0.167,0.601 -1.217,0.95 -3.15,1.051 -0.467,0.066 -1,0.017 -1.6,-0.15 -0.633,-0.167 -0.967,-0.384 -1,-0.65 -0.034,-0.5 0.683,-0.833 2.15,-1 0.8,-0.1 1.6,-0.1 2.4,0 0.867,0.166 1.267,0.416 1.2,0.749 z"
   fill="#ababb0"
   id="path306" />
			<path
   d="m 77.5,33.35 c 0.167,-0.033 0.45,-0.05 0.85,-0.05 v 0.2 c -0.333,0 -0.534,0.083 -0.6,0.25 l 0.15,0.45 0.15,0.25 c 0.067,0.033 0.184,0.083 0.35,0.149 h -0.7 c 0.033,0.101 0.25,0.15 0.65,0.15 0.433,0.033 0.683,0.066 0.75,0.1 -0.8,0.167 -1.55,0.15 -2.25,-0.05 -0.7,-0.233 -1.083,-0.45 -1.15,-0.649 l -0.05,-0.301 c 0.267,-0.233 0.883,-0.399 1.85,-0.499 z"
   fill="#9c9ca1"
   id="path308" />
			<path
   d="m 79.3,33.55 c 0.367,-0.033 0.667,-0.017 0.9,0.05 0.366,0.134 0.533,0.217 0.5,0.25 l 0.1,0.101 c 0.067,0.166 -0.133,0.316 -0.6,0.45 -0.5,0.1 -0.817,0.083 -0.95,-0.051 -0.033,-0.066 -0.033,-0.133 0,-0.199 0.1,-0.101 0.15,-0.167 0.15,-0.2 -0.1,-0.168 -0.133,-0.301 -0.1,-0.401 z"
   fill="#bfbfc4"
   id="path310" />
			<polygon
   points="238.8,52.15 238.55,52.4 238.05,51.85 "
   fill="#76767a"
   id="polygon312" />
			<path
   d="m 241.95,51.25 c -0.101,0.467 -0.567,0.8 -1.4,1 -0.2,0.033 -0.85,0.116 -1.95,0.25 -0.5,0.033 -1.066,-0.05 -1.699,-0.25 -0.7,-0.233 -1.067,-0.5 -1.101,-0.8 -0.033,-0.634 0.733,-1.033 2.3,-1.2 0.867,-0.1 1.717,-0.083 2.551,0.05 0.93,0.2 1.37,0.516 1.3,0.95 z"
   fill="#d9d9e0"
   id="path314" />
			<path
   d="m 241.65,51.3 c -0.101,0.7 -1.268,1.117 -3.5,1.25 -0.5,0.033 -1.034,-0.017 -1.601,-0.149 -0.633,-0.167 -0.967,-0.384 -1,-0.65 -0.066,-0.6 0.517,-0.967 1.75,-1.1 0.867,-0.101 1.783,-0.101 2.75,0 1.13,0.099 1.67,0.316 1.6,0.649 z"
   fill="#7e7e82"
   id="path316" />
			<path
   d="m 241.5,51.15 c -0.134,0.566 -1.167,0.916 -3.1,1.05 -0.467,0.066 -1,0.017 -1.601,-0.15 -0.633,-0.166 -0.967,-0.383 -1,-0.649 -0.033,-0.5 0.684,-0.834 2.15,-1 0.8,-0.101 1.6,-0.101 2.399,0 0.87,0.165 1.25,0.415 1.15,0.749 z"
   fill="#ababb0"
   id="path318" />
			<path
   d="m 238.8,50.35 -0.05,0.15 c -0.3,0.033 -0.483,0.134 -0.55,0.3 0,0.167 0.05,0.316 0.149,0.45 l 0.15,0.25 c 0.066,0.033 0.184,0.083 0.35,0.15 h -0.75 c 0.067,0.1 0.301,0.149 0.7,0.149 0.434,0.033 0.684,0.066 0.75,0.101 -0.8,0.166 -1.55,0.149 -2.25,-0.051 -0.633,-0.199 -1.017,-0.416 -1.149,-0.649 l -0.101,-0.3 c 0.333,-0.233 0.967,-0.4 1.9,-0.5 0.17,-0.034 0.45,-0.05 0.85,-0.05 z"
   fill="#9c9ca1"
   id="path320" />
			<path
   d="m 239.7,50.6 c 0.399,-0.033 0.717,-0.017 0.95,0.051 0.333,0.1 0.5,0.183 0.5,0.25 l 0.1,0.1 c 0.066,0.167 -0.134,0.316 -0.6,0.45 -0.5,0.1 -0.817,0.083 -0.95,-0.05 -0.067,-0.067 -0.067,-0.134 0,-0.2 l 0.1,-0.2 C 239.73,50.833 239.7,50.7 239.7,50.6 Z"
   fill="#bfbfc4"
   id="path322" />
			<path
   d="m 59.5,51.45 h 1.85 c 0.767,0.066 1.333,0.283 1.7,0.649 0.233,0.267 0.284,0.517 0.15,0.75 -0.167,0.233 -0.434,0.384 -0.8,0.45 -1.2,0.167 -2.417,0.167 -3.65,0 -0.233,-0.033 -0.5,-0.133 -0.8,-0.3 -0.333,-0.167 -0.6,-0.3 -0.8,-0.4 -0.382,-0.19 -1.207,-0.291 -2.475,-0.3 0.108,-0.019 0.233,-0.069 0.375,-0.149 0.434,-0.167 1.15,-0.284 2.15,-0.351 1.333,-0.2 2.066,-0.2 2.2,0 z"
   fill="#c4b076"
   id="path324" />
			<path
   d="m 59.65,51.9 0.45,0.25 H 62 c 0.3,0.033 0.433,0.149 0.4,0.35 -0.033,0.233 -0.2,0.384 -0.5,0.45 -0.367,0.133 -1.033,0.166 -2,0.1 -1.4,-0.133 -2.15,-0.383 -2.25,-0.75 0.233,-0.1 0.617,-0.184 1.15,-0.25 z"
   fill="#96875b"
   id="path326" />
			<path
   d="m 60.65,52.3 0.25,-0.149 c 0.1,0 0.417,0.033 0.95,0.1 0.1,0.5 -0.2,0.767 -0.9,0.8 -0.3,0.033 -0.833,-0.017 -1.6,-0.149 -0.267,-0.034 -0.45,-0.067 -0.55,-0.101 -0.2,-0.066 -0.15,-0.184 0.15,-0.35 0.2,-0.134 0.483,-0.2 0.85,-0.2 0.2,-10e-4 0.483,0.016 0.85,0.049 z"
   fill="#635a3c"
   id="path328" />
		<path
   d="m 234.05,69.1 c -5.967,0.767 -10.283,1.15 -12.95,1.15 -4.467,0.033 -8.699,0.05 -12.699,0.05 -7.634,-0.066 -14.483,-0.25 -20.551,-0.55 -5.633,-0.3 -12.3,-0.116 -20,0.55 -11.533,1 -18.699,1.566 -21.5,1.7 -6.7,0.3 -15.016,0.316 -24.95,0.05 -9.267,-0.366 -14.783,-0.55 -16.55,-0.55 -2.2,0 -9.367,-0.316 -21.5,-0.95 l -17.6,-1 1.1,-0.8 11.8,0.25 c 8.6,0.167 14.667,0.25 18.2,0.25 2.367,0 8.267,0.217 17.7,0.65 9.4,0.399 16.667,0.6 21.8,0.6 5.566,0 10.583,-0.267 15.05,-0.8 6.267,-0.767 9.666,-1.167 10.199,-1.2 2.934,-0.2 10.983,-0.1 24.15,0.3 14.9,0.467 22.767,0.7 23.6,0.7 4.5,0 12.73,-0.134 24.7,-0.4 z"
   fill="#f0dda8"
   id="path330" />
		<polygon
   points="183.85,55.5 191.1,54.75 185.75,57.7 "
   fill="#96875b"
   id="polygon332" />
		<path
   d="m 183.85,55.5 -10.699,0.15 7.949,-1.15 c 1.834,-0.167 4,-0.167 6.5,0 l -1.5,4.25 z"
   fill="#7a6d48"
   id="path334" />
		<polygon
   points="189.1,56 191.6,56 186.1,58.75 "
   fill="#f0dda8"
   id="polygon336" />
		<path
   d="m 202.35,47.75 c -3.133,0.2 -6.733,0.217 -10.8,0.05 l -5.2,-0.3 4.95,-0.55 c 3.733,-0.367 6.583,-0.601 8.55,-0.7 3.167,-0.167 8.25,-0.333 15.25,-0.5 -3.5,1 -7.75,1.667 -12.75,2 z"
   fill="#96875b"
   id="path338" />
		<path
   d="m 187.35,47.5 5.65,0.2 c 4.133,0.066 7.083,0 8.85,-0.2 2.834,-0.333 7.25,-0.917 13.25,-1.75 -6.166,1.667 -10.833,2.583 -14,2.75 -1.967,0.1 -4.85,-0.033 -8.649,-0.4 l -5.1,-0.6 z"
   fill="#f0dda8"
   id="path340" />
			<path
   d="m 245.35,71.15 c -1.6,0.666 -2.649,1 -3.149,1 l -1.25,-0.101 c -0.167,-0.267 -0.217,-0.616 -0.15,-1.05 l 0.15,-0.65 1,0.2 c 0.8,0.033 1.517,-0.116 2.149,-0.45 z"
   fill="#97979c"
   id="path342" />
			<polygon
   points="244.1,70.1 244.9,70.8 243.5,70.35 "
   fill="#76767a"
   id="polygon344" />
			<path
   d="m 243.05,70.45 0.15,-0.05 -0.15,0.699 c -0.066,0.167 -0.167,0.301 -0.3,0.4 l -0.25,0.2 c -0.233,0.133 -0.783,0.166 -1.65,0.1 -0.066,-0.233 -0.083,-0.5 -0.05,-0.8 l 0.15,-0.65 0.25,0.101 c -0.134,0.133 -0.184,0.267 -0.15,0.399 0,0.267 0.184,0.45 0.55,0.551 0.334,0.1 0.65,0.1 0.95,0 0.2,-0.034 0.333,-0.217 0.4,-0.551 z"
   fill="#76767a"
   id="path346" />
			<path
   d="m 242.2,72.15 -1.25,-0.101 -0.101,-0.25 c 0.867,0.066 1.417,0.033 1.65,-0.1 l 0.25,-0.2 c 0.133,-0.1 0.233,-0.233 0.3,-0.4 l 0.15,-0.699 0.3,-0.051 1.4,0.45 0.449,0.351 c -1.6,0.666 -2.65,1 -3.15,1 z"
   fill="#5b5b5e"
   id="path348" />
			<path
   d="m 242.95,70.85 c -0.2,0.167 -0.5,0.25 -0.9,0.25 -0.233,0 -0.533,-0.133 -0.899,-0.399 l 0.399,0.149 z"
   fill="#d9d9e0"
   id="path350" />
			<path
   d="m 245.6,67.15 c 1,-0.101 1.801,0.283 2.4,1.149 0.566,0.733 0.8,1.5 0.7,2.3 -0.167,1.467 -0.983,2.2 -2.45,2.2 -0.7,0 -1.384,-0.3 -2.05,-0.899 -0.601,-0.567 -0.9,-1.084 -0.9,-1.551 0,-0.899 0.066,-1.5 0.2,-1.8 0.3,-0.799 1,-1.266 2.1,-1.399 z"
   fill="#d9d9e0"
   id="path352" />
			<path
   d="m 245.5,67.4 c 0.8,-0.067 1.434,0.416 1.9,1.449 0.399,0.867 0.566,1.717 0.5,2.551 -0.134,1.1 -0.9,1.649 -2.301,1.649 -0.566,0 -1.116,-0.283 -1.649,-0.85 -0.5,-0.533 -0.75,-1.017 -0.75,-1.45 0,-0.934 0.05,-1.55 0.149,-1.85 0.3,-0.899 1.02,-1.399 2.15,-1.499 z"
   fill="#7e7e82"
   id="path354" />
			<path
   d="m 245.85,67.55 c 0.801,-0.1 1.45,0.25 1.95,1.05 0.467,0.667 0.667,1.384 0.601,2.15 -0.167,1.366 -0.851,2.05 -2.051,2.05 -0.566,0 -1.116,-0.283 -1.649,-0.85 -0.5,-0.533 -0.75,-1.017 -0.75,-1.45 0,-0.833 0.05,-1.384 0.149,-1.65 0.23,-0.767 0.82,-1.2 1.75,-1.3 z"
   fill="#ababb0"
   id="path356" />
			<path
   d="m 246.85,72.5 c -0.6,-0.1 -1.183,-0.434 -1.75,-1 -0.566,-0.566 -0.767,-1.267 -0.6,-2.1 0.1,0.066 0.217,0.3 0.35,0.699 0.101,0.367 0.25,0.567 0.45,0.601 0,-0.033 -0.033,-0.15 -0.1,-0.351 -0.033,-0.133 -0.017,-0.233 0.05,-0.3 l 0.45,0.3 0.649,0.15 c 0.4,0.066 0.733,0.083 1,0.05 0.4,-0.066 0.584,-0.25 0.551,-0.55 h 0.449 l 0.051,0.75 c -0.101,0.866 -0.417,1.467 -0.95,1.8 z"
   fill="#9c9ca1"
   id="path358" />
			<path
   d="m 247.5,69.15 c -0.4,-0.067 -0.7,-0.084 -0.9,-0.051 -0.399,0.167 -0.699,0.217 -0.899,0.15 -0.367,-0.134 -0.434,-0.417 -0.2,-0.85 0.2,-0.467 0.467,-0.667 0.8,-0.601 l 0.25,0.05 c 0.2,0 0.45,0.15 0.75,0.45 0.17,0.235 0.23,0.518 0.2,0.852 z"
   fill="#bfbfc4"
   id="path360" />
	</g>
</svg>
